<mxfile host="Electron" agent="Mozilla/5.0 (Windows NT 10.0; Win64; x64) AppleWebKit/537.36 (KHTML, like Gecko) draw.io/24.7.17 Chrome/128.0.6613.36 Electron/32.0.1 Safari/537.36" version="24.7.17" pages="6">
  <diagram id="JsU0TVAdl7eJGY5Hiu6E" name="Расстановка пузырьков">
    <mxGraphModel dx="1752" dy="1063" grid="0" gridSize="10" guides="1" tooltips="1" connect="1" arrows="1" fold="1" page="1" pageScale="1" pageWidth="827" pageHeight="1169" math="0" shadow="0">
      <root>
        <mxCell id="0" />
        <mxCell id="1" parent="0" />
        <mxCell id="ZDiRk7_sAyq43_5CIILp-3" style="edgeStyle=orthogonalEdgeStyle;rounded=0;orthogonalLoop=1;jettySize=auto;html=1;fontSize=14;dashed=1;endArrow=none;endFill=0;entryX=1;entryY=0.5;entryDx=0;entryDy=0;entryPerimeter=0;" parent="1" source="ZDiRk7_sAyq43_5CIILp-4" target="ZDiRk7_sAyq43_5CIILp-18" edge="1">
          <mxGeometry relative="1" as="geometry">
            <mxPoint x="188" y="99" as="targetPoint" />
            <Array as="points">
              <mxPoint x="263" y="99" />
              <mxPoint x="263" y="99" />
            </Array>
          </mxGeometry>
        </mxCell>
        <mxCell id="ZDiRk7_sAyq43_5CIILp-4" value="" style="strokeWidth=1;html=1;shape=mxgraph.flowchart.annotation_2;align=left;labelPosition=right;pointerEvents=1;rounded=0;fontSize=14;strokeColor=default;fillColor=default;" parent="1" vertex="1">
          <mxGeometry x="284" y="30" width="4" height="136" as="geometry" />
        </mxCell>
        <mxCell id="ZDiRk7_sAyq43_5CIILp-5" value="&lt;font style=&quot;font-size: 14px;&quot;&gt;Алгоритм расстановки пузырьков&lt;br&gt;&lt;/font&gt;&lt;div&gt;&lt;div&gt;&lt;div style=&quot;&quot;&gt;&lt;font style=&quot;font-size: 14px;&quot;&gt;Входные данные: два пузырька,&amp;nbsp;&lt;/font&gt;&lt;/div&gt;&lt;div style=&quot;&quot;&gt;&lt;font style=&quot;font-size: 14px;&quot;&gt;флаг об исходном состоянии пузырьков&amp;nbsp;&lt;/font&gt;&lt;/div&gt;&lt;div style=&quot;&quot;&gt;&lt;font style=&quot;font-size: 14px;&quot;&gt;(истинный - если один из пузырьков&amp;nbsp;&lt;/font&gt;&lt;/div&gt;&lt;div style=&quot;&quot;&gt;&lt;font style=&quot;font-size: 14px;&quot;&gt;является частью кластера)&amp;nbsp;&lt;/font&gt;&lt;/div&gt;&lt;div style=&quot;&quot;&gt;&lt;font style=&quot;&quot;&gt;&lt;font style=&quot;font-size: 14px;&quot;&gt;Выходные данные: список&amp;nbsp;&lt;/font&gt;&lt;/font&gt;&lt;/div&gt;&lt;div style=&quot;&quot;&gt;&lt;font style=&quot;&quot;&gt;&lt;font style=&quot;font-size: 14px;&quot;&gt;объектов (под объектами понимать&lt;/font&gt;&lt;/font&gt;&lt;/div&gt;&lt;div style=&quot;&quot;&gt;&lt;font style=&quot;&quot;&gt;&lt;font style=&quot;font-size: 14px;&quot;&gt;пузырьки и пузырьковые кластеры)&lt;/font&gt;&lt;br&gt;&lt;/font&gt;&lt;/div&gt;&lt;/div&gt;&lt;/div&gt;" style="text;html=1;align=left;verticalAlign=middle;resizable=0;points=[];autosize=1;fontSize=14;" parent="1" vertex="1">
          <mxGeometry x="290" y="26" width="283" height="146" as="geometry" />
        </mxCell>
        <mxCell id="AVLuDFh7Q-rHlD-JGkGC-1" style="edgeStyle=orthogonalEdgeStyle;rounded=0;orthogonalLoop=1;jettySize=auto;html=1;exitX=0.5;exitY=1;exitDx=0;exitDy=0;exitPerimeter=0;entryX=0.5;entryY=0;entryDx=0;entryDy=0;" parent="1" source="ZDiRk7_sAyq43_5CIILp-18" target="ZDiRk7_sAyq43_5CIILp-31" edge="1">
          <mxGeometry relative="1" as="geometry" />
        </mxCell>
        <mxCell id="ZDiRk7_sAyq43_5CIILp-18" value="&lt;span style=&quot;font-size: 14px;&quot;&gt;Начало&lt;/span&gt;" style="strokeWidth=1;html=1;shape=mxgraph.flowchart.terminator;whiteSpace=wrap;" parent="1" vertex="1">
          <mxGeometry x="53" y="69" width="150" height="60" as="geometry" />
        </mxCell>
        <mxCell id="7sjbjmQ4Z-qU9tMxPS6V-7" style="edgeStyle=orthogonalEdgeStyle;rounded=0;orthogonalLoop=1;jettySize=auto;html=1;exitX=0.5;exitY=1;exitDx=0;exitDy=0;entryX=0.5;entryY=0;entryDx=0;entryDy=0;" parent="1" source="ZDiRk7_sAyq43_5CIILp-31" target="7sjbjmQ4Z-qU9tMxPS6V-6" edge="1">
          <mxGeometry relative="1" as="geometry" />
        </mxCell>
        <mxCell id="ZDiRk7_sAyq43_5CIILp-31" value="&lt;span style=&quot;font-size: 14px;&quot;&gt;Вычисление угла соприкосновения и запись результата в&amp;nbsp;&lt;br&gt;contact_angle&lt;/span&gt;" style="rounded=0;whiteSpace=wrap;html=1;" parent="1" vertex="1">
          <mxGeometry x="8" y="164" width="240" height="50" as="geometry" />
        </mxCell>
        <mxCell id="7sjbjmQ4Z-qU9tMxPS6V-10" style="edgeStyle=orthogonalEdgeStyle;rounded=0;orthogonalLoop=1;jettySize=auto;html=1;exitX=0.5;exitY=1;exitDx=0;exitDy=0;entryX=0.5;entryY=0;entryDx=0;entryDy=0;" parent="1" source="7sjbjmQ4Z-qU9tMxPS6V-1" target="7sjbjmQ4Z-qU9tMxPS6V-9" edge="1">
          <mxGeometry relative="1" as="geometry" />
        </mxCell>
        <mxCell id="7sjbjmQ4Z-qU9tMxPS6V-11" value="да" style="edgeLabel;html=1;align=center;verticalAlign=middle;resizable=0;points=[];" parent="7sjbjmQ4Z-qU9tMxPS6V-10" vertex="1" connectable="0">
          <mxGeometry x="-0.4118" y="-1" relative="1" as="geometry">
            <mxPoint x="20" y="3" as="offset" />
          </mxGeometry>
        </mxCell>
        <mxCell id="je3XoOMEsg_LBda0zcUg-12" style="edgeStyle=orthogonalEdgeStyle;rounded=0;orthogonalLoop=1;jettySize=auto;html=1;exitX=1;exitY=0.5;exitDx=0;exitDy=0;entryX=0.5;entryY=0;entryDx=0;entryDy=0;" parent="1" source="7sjbjmQ4Z-qU9tMxPS6V-1" target="je3XoOMEsg_LBda0zcUg-11" edge="1">
          <mxGeometry relative="1" as="geometry" />
        </mxCell>
        <mxCell id="7sjbjmQ4Z-qU9tMxPS6V-1" value="&lt;span style=&quot;font-size: 14px;&quot;&gt;contact_angle&amp;nbsp;&lt;/span&gt;&lt;div&gt;&lt;span style=&quot;font-size: 14px;&quot;&gt;является &lt;br&gt;числом&lt;/span&gt;&lt;/div&gt;" style="rhombus;whiteSpace=wrap;html=1;" parent="1" vertex="1">
          <mxGeometry x="14" y="325" width="229" height="80" as="geometry" />
        </mxCell>
        <mxCell id="7sjbjmQ4Z-qU9tMxPS6V-8" style="edgeStyle=orthogonalEdgeStyle;rounded=0;orthogonalLoop=1;jettySize=auto;html=1;exitX=0.5;exitY=1;exitDx=0;exitDy=0;entryX=0.5;entryY=0;entryDx=0;entryDy=0;" parent="1" source="7sjbjmQ4Z-qU9tMxPS6V-6" target="7sjbjmQ4Z-qU9tMxPS6V-1" edge="1">
          <mxGeometry relative="1" as="geometry" />
        </mxCell>
        <mxCell id="7sjbjmQ4Z-qU9tMxPS6V-6" value="&lt;span style=&quot;font-size: 14px;&quot;&gt;Создание списка результатов&lt;/span&gt;" style="rounded=0;whiteSpace=wrap;html=1;" parent="1" vertex="1">
          <mxGeometry x="7" y="247" width="240" height="50" as="geometry" />
        </mxCell>
        <mxCell id="7sjbjmQ4Z-qU9tMxPS6V-18" style="edgeStyle=orthogonalEdgeStyle;rounded=0;orthogonalLoop=1;jettySize=auto;html=1;exitX=1;exitY=0.5;exitDx=0;exitDy=0;entryX=0.5;entryY=0;entryDx=0;entryDy=0;" parent="1" source="7sjbjmQ4Z-qU9tMxPS6V-9" target="7sjbjmQ4Z-qU9tMxPS6V-17" edge="1">
          <mxGeometry relative="1" as="geometry" />
        </mxCell>
        <mxCell id="t83N6UjP3Cnm8lF_CYNJ-2" style="edgeStyle=orthogonalEdgeStyle;rounded=0;orthogonalLoop=1;jettySize=auto;html=1;exitX=0.5;exitY=1;exitDx=0;exitDy=0;entryX=0.5;entryY=0;entryDx=0;entryDy=0;" parent="1" source="7sjbjmQ4Z-qU9tMxPS6V-9" target="t83N6UjP3Cnm8lF_CYNJ-1" edge="1">
          <mxGeometry relative="1" as="geometry" />
        </mxCell>
        <mxCell id="t83N6UjP3Cnm8lF_CYNJ-3" value="да" style="edgeLabel;html=1;align=center;verticalAlign=middle;resizable=0;points=[];" parent="t83N6UjP3Cnm8lF_CYNJ-2" vertex="1" connectable="0">
          <mxGeometry x="-0.3759" y="-2" relative="1" as="geometry">
            <mxPoint x="16" y="1" as="offset" />
          </mxGeometry>
        </mxCell>
        <mxCell id="7sjbjmQ4Z-qU9tMxPS6V-9" value="&lt;font style=&quot;&quot;&gt;&lt;span style=&quot;font-size: 14px;&quot;&gt;contact_angle&lt;/span&gt;&lt;font style=&quot;font-size: 14px;&quot;&gt;&amp;nbsp;&amp;lt; 55.0&lt;/font&gt;&lt;/font&gt;" style="rhombus;whiteSpace=wrap;html=1;" parent="1" vertex="1">
          <mxGeometry x="14" y="439" width="229" height="80" as="geometry" />
        </mxCell>
        <mxCell id="y15CfJJuD7PHbupTIUav-3" style="edgeStyle=orthogonalEdgeStyle;rounded=0;orthogonalLoop=1;jettySize=auto;html=1;exitX=0.5;exitY=1;exitDx=0;exitDy=0;entryX=0.5;entryY=0;entryDx=0;entryDy=0;" parent="1" source="7sjbjmQ4Z-qU9tMxPS6V-14" target="je3XoOMEsg_LBda0zcUg-10" edge="1">
          <mxGeometry relative="1" as="geometry">
            <Array as="points">
              <mxPoint x="127" y="736" />
              <mxPoint x="127" y="896" />
              <mxPoint x="286" y="896" />
            </Array>
          </mxGeometry>
        </mxCell>
        <mxCell id="7sjbjmQ4Z-qU9tMxPS6V-14" value="Запись результата&amp;nbsp;&lt;br&gt;слияния в список результатов" style="rounded=0;whiteSpace=wrap;html=1;" parent="1" vertex="1">
          <mxGeometry x="68.5" y="676" width="120" height="60" as="geometry" />
        </mxCell>
        <mxCell id="7sjbjmQ4Z-qU9tMxPS6V-25" style="edgeStyle=orthogonalEdgeStyle;rounded=0;orthogonalLoop=1;jettySize=auto;html=1;exitX=0.5;exitY=1;exitDx=0;exitDy=0;entryX=0.5;entryY=0;entryDx=0;entryDy=0;" parent="1" source="7sjbjmQ4Z-qU9tMxPS6V-17" target="t83N6UjP3Cnm8lF_CYNJ-5" edge="1">
          <mxGeometry relative="1" as="geometry">
            <mxPoint x="351.5" y="648" as="targetPoint" />
          </mxGeometry>
        </mxCell>
        <mxCell id="7sjbjmQ4Z-qU9tMxPS6V-26" value="да" style="edgeLabel;html=1;align=center;verticalAlign=middle;resizable=0;points=[];" parent="7sjbjmQ4Z-qU9tMxPS6V-25" vertex="1" connectable="0">
          <mxGeometry x="-0.4286" relative="1" as="geometry">
            <mxPoint x="17" y="2" as="offset" />
          </mxGeometry>
        </mxCell>
        <mxCell id="je3XoOMEsg_LBda0zcUg-2" style="edgeStyle=orthogonalEdgeStyle;rounded=0;orthogonalLoop=1;jettySize=auto;html=1;exitX=1;exitY=0.5;exitDx=0;exitDy=0;entryX=0.5;entryY=0;entryDx=0;entryDy=0;" parent="1" source="7sjbjmQ4Z-qU9tMxPS6V-17" target="7sjbjmQ4Z-qU9tMxPS6V-29" edge="1">
          <mxGeometry relative="1" as="geometry" />
        </mxCell>
        <mxCell id="7sjbjmQ4Z-qU9tMxPS6V-17" value="&lt;font style=&quot;&quot;&gt;&lt;span style=&quot;font-size: 14px;&quot;&gt;contact_angle&lt;/span&gt;&lt;font style=&quot;font-size: 14px;&quot;&gt;&amp;nbsp;&amp;gt; 65.0&lt;/font&gt;&lt;/font&gt;" style="rhombus;whiteSpace=wrap;html=1;" parent="1" vertex="1">
          <mxGeometry x="237" y="514" width="229" height="80" as="geometry" />
        </mxCell>
        <mxCell id="7sjbjmQ4Z-qU9tMxPS6V-20" style="edgeStyle=orthogonalEdgeStyle;rounded=0;orthogonalLoop=1;jettySize=auto;html=1;exitX=0.5;exitY=1;exitDx=0;exitDy=0;entryX=0.5;entryY=0;entryDx=0;entryDy=0;" parent="1" source="t83N6UjP3Cnm8lF_CYNJ-5" target="7sjbjmQ4Z-qU9tMxPS6V-22" edge="1">
          <mxGeometry relative="1" as="geometry">
            <mxPoint x="351.5" y="728" as="sourcePoint" />
          </mxGeometry>
        </mxCell>
        <mxCell id="y15CfJJuD7PHbupTIUav-5" style="edgeStyle=orthogonalEdgeStyle;rounded=0;orthogonalLoop=1;jettySize=auto;html=1;exitX=0.5;exitY=1;exitDx=0;exitDy=0;entryX=0.5;entryY=0;entryDx=0;entryDy=0;" parent="1" source="7sjbjmQ4Z-qU9tMxPS6V-22" target="je3XoOMEsg_LBda0zcUg-10" edge="1">
          <mxGeometry relative="1" as="geometry">
            <Array as="points">
              <mxPoint x="351" y="896" />
              <mxPoint x="286" y="896" />
            </Array>
          </mxGeometry>
        </mxCell>
        <mxCell id="7sjbjmQ4Z-qU9tMxPS6V-22" value="Запись результата&amp;nbsp;&lt;br&gt;отталкивания в список результатов" style="rounded=0;whiteSpace=wrap;html=1;" parent="1" vertex="1">
          <mxGeometry x="291.5" y="780" width="120" height="60" as="geometry" />
        </mxCell>
        <mxCell id="je3XoOMEsg_LBda0zcUg-3" style="edgeStyle=orthogonalEdgeStyle;rounded=0;orthogonalLoop=1;jettySize=auto;html=1;exitX=1;exitY=0.5;exitDx=0;exitDy=0;entryX=0.5;entryY=0;entryDx=0;entryDy=0;" parent="1" source="7sjbjmQ4Z-qU9tMxPS6V-29" target="je3XoOMEsg_LBda0zcUg-1" edge="1">
          <mxGeometry relative="1" as="geometry" />
        </mxCell>
        <mxCell id="je3XoOMEsg_LBda0zcUg-8" style="edgeStyle=orthogonalEdgeStyle;rounded=0;orthogonalLoop=1;jettySize=auto;html=1;exitX=0.5;exitY=1;exitDx=0;exitDy=0;entryX=0.5;entryY=0;entryDx=0;entryDy=0;" parent="1" source="7sjbjmQ4Z-qU9tMxPS6V-29" target="t83N6UjP3Cnm8lF_CYNJ-6" edge="1">
          <mxGeometry relative="1" as="geometry">
            <mxPoint x="544" y="702" as="targetPoint" />
          </mxGeometry>
        </mxCell>
        <mxCell id="y15CfJJuD7PHbupTIUav-9" value="да" style="edgeLabel;html=1;align=center;verticalAlign=middle;resizable=0;points=[];" parent="je3XoOMEsg_LBda0zcUg-8" vertex="1" connectable="0">
          <mxGeometry x="-0.2075" relative="1" as="geometry">
            <mxPoint x="19" as="offset" />
          </mxGeometry>
        </mxCell>
        <mxCell id="7sjbjmQ4Z-qU9tMxPS6V-29" value="&lt;span style=&quot;font-size: 14px; text-align: left; text-wrap: nowrap;&quot;&gt;флаг об&amp;nbsp;&lt;/span&gt;&lt;div&gt;&lt;span style=&quot;font-size: 14px; text-align: left; text-wrap: nowrap;&quot;&gt;исходном состоянии&amp;nbsp;&lt;/span&gt;&lt;/div&gt;&lt;div&gt;&lt;span style=&quot;font-size: 14px; text-align: left; text-wrap: nowrap;&quot;&gt;пузырьков !=&amp;nbsp;&lt;/span&gt;&lt;/div&gt;&lt;div&gt;&lt;span style=&quot;font-size: 14px; text-align: left; text-wrap: nowrap;&quot;&gt;истинна&lt;/span&gt;&lt;/div&gt;" style="rhombus;whiteSpace=wrap;html=1;" parent="1" vertex="1">
          <mxGeometry x="431" y="589" width="229" height="80" as="geometry" />
        </mxCell>
        <mxCell id="je3XoOMEsg_LBda0zcUg-1" value="&lt;span style=&quot;font-size: 14px;&quot;&gt;Вернуть null&lt;/span&gt;" style="shape=parallelogram;perimeter=parallelogramPerimeter;whiteSpace=wrap;html=1;fixedSize=1;" parent="1" vertex="1">
          <mxGeometry x="561" y="923" width="237" height="43" as="geometry" />
        </mxCell>
        <mxCell id="je3XoOMEsg_LBda0zcUg-5" style="edgeStyle=orthogonalEdgeStyle;rounded=0;orthogonalLoop=1;jettySize=auto;html=1;exitX=0.5;exitY=1;exitDx=0;exitDy=0;entryX=0.5;entryY=0;entryDx=0;entryDy=0;" parent="1" source="t83N6UjP3Cnm8lF_CYNJ-6" target="je3XoOMEsg_LBda0zcUg-7" edge="1">
          <mxGeometry relative="1" as="geometry">
            <mxPoint x="544" y="782" as="sourcePoint" />
          </mxGeometry>
        </mxCell>
        <mxCell id="y15CfJJuD7PHbupTIUav-6" style="edgeStyle=orthogonalEdgeStyle;rounded=0;orthogonalLoop=1;jettySize=auto;html=1;exitX=0.5;exitY=1;exitDx=0;exitDy=0;entryX=0.5;entryY=0;entryDx=0;entryDy=0;" parent="1" source="je3XoOMEsg_LBda0zcUg-7" target="je3XoOMEsg_LBda0zcUg-10" edge="1">
          <mxGeometry relative="1" as="geometry" />
        </mxCell>
        <mxCell id="je3XoOMEsg_LBda0zcUg-7" value="Запись результата&amp;nbsp;&lt;br&gt;образования кластера в список результатов" style="rounded=0;whiteSpace=wrap;html=1;" parent="1" vertex="1">
          <mxGeometry x="485.5" y="807" width="120" height="60" as="geometry" />
        </mxCell>
        <mxCell id="je3XoOMEsg_LBda0zcUg-10" value="&lt;span style=&quot;font-size: 14px;&quot;&gt;Вернуть список результатов&lt;/span&gt;" style="shape=parallelogram;perimeter=parallelogramPerimeter;whiteSpace=wrap;html=1;fixedSize=1;" parent="1" vertex="1">
          <mxGeometry x="167.5" y="923" width="237" height="43" as="geometry" />
        </mxCell>
        <mxCell id="je3XoOMEsg_LBda0zcUg-11" value="&lt;span style=&quot;font-size: 14px;&quot;&gt;Вернуть null&lt;/span&gt;" style="shape=parallelogram;perimeter=parallelogramPerimeter;whiteSpace=wrap;html=1;fixedSize=1;" parent="1" vertex="1">
          <mxGeometry x="576" y="439" width="237" height="43" as="geometry" />
        </mxCell>
        <mxCell id="y15CfJJuD7PHbupTIUav-1" value="&lt;font style=&quot;font-size: 14px;&quot;&gt;Конец&lt;/font&gt;" style="strokeWidth=1;html=1;shape=mxgraph.flowchart.terminator;whiteSpace=wrap;" parent="1" vertex="1">
          <mxGeometry x="356.5" y="1025" width="150" height="60" as="geometry" />
        </mxCell>
        <mxCell id="y15CfJJuD7PHbupTIUav-2" style="edgeStyle=orthogonalEdgeStyle;rounded=0;orthogonalLoop=1;jettySize=auto;html=1;exitX=0.5;exitY=1;exitDx=0;exitDy=0;entryX=0.5;entryY=0;entryDx=0;entryDy=0;entryPerimeter=0;" parent="1" source="je3XoOMEsg_LBda0zcUg-10" target="y15CfJJuD7PHbupTIUav-1" edge="1">
          <mxGeometry relative="1" as="geometry" />
        </mxCell>
        <mxCell id="y15CfJJuD7PHbupTIUav-7" style="edgeStyle=orthogonalEdgeStyle;rounded=0;orthogonalLoop=1;jettySize=auto;html=1;exitX=0.5;exitY=1;exitDx=0;exitDy=0;entryX=0.5;entryY=0;entryDx=0;entryDy=0;entryPerimeter=0;" parent="1" source="je3XoOMEsg_LBda0zcUg-11" target="y15CfJJuD7PHbupTIUav-1" edge="1">
          <mxGeometry relative="1" as="geometry">
            <Array as="points">
              <mxPoint x="695" y="863" />
              <mxPoint x="812" y="863" />
              <mxPoint x="812" y="996" />
              <mxPoint x="431" y="996" />
            </Array>
          </mxGeometry>
        </mxCell>
        <mxCell id="y15CfJJuD7PHbupTIUav-8" style="edgeStyle=orthogonalEdgeStyle;rounded=0;orthogonalLoop=1;jettySize=auto;html=1;exitX=0.5;exitY=1;exitDx=0;exitDy=0;entryX=0.5;entryY=0;entryDx=0;entryDy=0;entryPerimeter=0;" parent="1" source="je3XoOMEsg_LBda0zcUg-1" target="y15CfJJuD7PHbupTIUav-1" edge="1">
          <mxGeometry relative="1" as="geometry" />
        </mxCell>
        <mxCell id="t83N6UjP3Cnm8lF_CYNJ-1" value="Слияние в один большой&lt;br&gt;пузырь" style="shape=process;whiteSpace=wrap;html=1;backgroundOutline=1;align=center;" parent="1" vertex="1">
          <mxGeometry x="8" y="594" width="241" height="44" as="geometry" />
        </mxCell>
        <mxCell id="t83N6UjP3Cnm8lF_CYNJ-4" style="edgeStyle=orthogonalEdgeStyle;rounded=0;orthogonalLoop=1;jettySize=auto;html=1;exitX=0.5;exitY=1;exitDx=0;exitDy=0;entryX=0.508;entryY=0;entryDx=0;entryDy=0;entryPerimeter=0;" parent="1" source="t83N6UjP3Cnm8lF_CYNJ-1" target="7sjbjmQ4Z-qU9tMxPS6V-14" edge="1">
          <mxGeometry relative="1" as="geometry" />
        </mxCell>
        <mxCell id="t83N6UjP3Cnm8lF_CYNJ-5" value="&lt;div style=&quot;&quot;&gt;&lt;div&gt;Отталкивание пузырьков&amp;nbsp;&lt;/div&gt;&lt;div&gt;друг от друга&lt;/div&gt;&lt;/div&gt;" style="shape=process;whiteSpace=wrap;html=1;backgroundOutline=1;align=center;" parent="1" vertex="1">
          <mxGeometry x="231" y="661" width="241" height="44" as="geometry" />
        </mxCell>
        <mxCell id="t83N6UjP3Cnm8lF_CYNJ-6" value="&lt;div style=&quot;&quot;&gt;Создание пузырькового&amp;nbsp;&lt;/div&gt;&lt;div style=&quot;&quot;&gt;кластера&lt;/div&gt;" style="shape=process;whiteSpace=wrap;html=1;backgroundOutline=1;align=center;" parent="1" vertex="1">
          <mxGeometry x="425" y="719" width="241" height="44" as="geometry" />
        </mxCell>
      </root>
    </mxGraphModel>
  </diagram>
  <diagram id="OWwsbXC9KJ9IbcxYc4ap" name="Слияние в один большой пузырь">
    <mxGraphModel dx="1314" dy="797" grid="0" gridSize="10" guides="1" tooltips="1" connect="1" arrows="1" fold="1" page="1" pageScale="1" pageWidth="827" pageHeight="1169" math="0" shadow="0">
      <root>
        <mxCell id="0" />
        <mxCell id="1" parent="0" />
        <mxCell id="mFWYxVebDer8n1wnjaA2-1" style="edgeStyle=orthogonalEdgeStyle;rounded=0;orthogonalLoop=1;jettySize=auto;html=1;fontSize=14;dashed=1;endArrow=none;endFill=0;entryX=1;entryY=0.5;entryDx=0;entryDy=0;entryPerimeter=0;" parent="1" source="mFWYxVebDer8n1wnjaA2-2" target="mFWYxVebDer8n1wnjaA2-5" edge="1">
          <mxGeometry relative="1" as="geometry">
            <mxPoint x="361" y="110" as="targetPoint" />
            <Array as="points">
              <mxPoint x="436" y="110" />
              <mxPoint x="436" y="110" />
            </Array>
          </mxGeometry>
        </mxCell>
        <mxCell id="mFWYxVebDer8n1wnjaA2-2" value="" style="strokeWidth=1;html=1;shape=mxgraph.flowchart.annotation_2;align=left;labelPosition=right;pointerEvents=1;rounded=0;fontSize=14;strokeColor=default;fillColor=default;" parent="1" vertex="1">
          <mxGeometry x="457" y="81" width="4" height="60" as="geometry" />
        </mxCell>
        <mxCell id="mFWYxVebDer8n1wnjaA2-3" value="&lt;font style=&quot;font-size: 14px;&quot;&gt;Алгоритм слияния в один большой пузырь&lt;br&gt;&lt;/font&gt;&lt;div&gt;&lt;div&gt;&lt;div style=&quot;&quot;&gt;&lt;font style=&quot;font-size: 14px;&quot;&gt;Входные данные: два пузырька&lt;/font&gt;&lt;/div&gt;&lt;div style=&quot;&quot;&gt;&lt;font style=&quot;&quot;&gt;&lt;font style=&quot;font-size: 14px;&quot;&gt;Выходные данные: один пузырь&lt;/font&gt;&lt;/font&gt;&lt;/div&gt;&lt;/div&gt;&lt;/div&gt;" style="text;html=1;align=left;verticalAlign=middle;resizable=0;points=[];autosize=1;fontSize=14;" parent="1" vertex="1">
          <mxGeometry x="463" y="80" width="300" height="60" as="geometry" />
        </mxCell>
        <mxCell id="mFWYxVebDer8n1wnjaA2-4" style="edgeStyle=orthogonalEdgeStyle;rounded=0;orthogonalLoop=1;jettySize=auto;html=1;exitX=0.5;exitY=1;exitDx=0;exitDy=0;exitPerimeter=0;entryX=0.5;entryY=0;entryDx=0;entryDy=0;" parent="1" source="mFWYxVebDer8n1wnjaA2-5" target="mFWYxVebDer8n1wnjaA2-13" edge="1">
          <mxGeometry relative="1" as="geometry">
            <mxPoint x="301" y="175" as="targetPoint" />
          </mxGeometry>
        </mxCell>
        <mxCell id="mFWYxVebDer8n1wnjaA2-5" value="&lt;span style=&quot;font-size: 14px;&quot;&gt;Начало&lt;/span&gt;" style="strokeWidth=1;html=1;shape=mxgraph.flowchart.terminator;whiteSpace=wrap;" parent="1" vertex="1">
          <mxGeometry x="226" y="80" width="150" height="60" as="geometry" />
        </mxCell>
        <mxCell id="mFWYxVebDer8n1wnjaA2-51" style="edgeStyle=orthogonalEdgeStyle;rounded=0;orthogonalLoop=1;jettySize=auto;html=1;exitX=0.5;exitY=1;exitDx=0;exitDy=0;entryX=0.5;entryY=0;entryDx=0;entryDy=0;" parent="1" source="mFWYxVebDer8n1wnjaA2-13" target="mFWYxVebDer8n1wnjaA2-46" edge="1">
          <mxGeometry relative="1" as="geometry" />
        </mxCell>
        <mxCell id="mFWYxVebDer8n1wnjaA2-13" value="&lt;span style=&quot;font-size: 14px;&quot;&gt;Вычисление нового центра, &lt;br&gt;как точки ровно посередине между&amp;nbsp;&lt;br&gt;исходными центрами&lt;/span&gt;" style="rounded=0;whiteSpace=wrap;html=1;" parent="1" vertex="1">
          <mxGeometry x="181" y="190" width="240" height="50" as="geometry" />
        </mxCell>
        <mxCell id="mFWYxVebDer8n1wnjaA2-52" style="edgeStyle=orthogonalEdgeStyle;rounded=0;orthogonalLoop=1;jettySize=auto;html=1;exitX=0.5;exitY=1;exitDx=0;exitDy=0;entryX=0.5;entryY=0;entryDx=0;entryDy=0;" parent="1" source="mFWYxVebDer8n1wnjaA2-46" target="mFWYxVebDer8n1wnjaA2-47" edge="1">
          <mxGeometry relative="1" as="geometry" />
        </mxCell>
        <mxCell id="mFWYxVebDer8n1wnjaA2-46" value="&lt;span style=&quot;font-size: 14px;&quot;&gt;Вычисление объёма&lt;br&gt;первого пузыря&lt;/span&gt;" style="rounded=0;whiteSpace=wrap;html=1;" parent="1" vertex="1">
          <mxGeometry x="181" y="270" width="240" height="50" as="geometry" />
        </mxCell>
        <mxCell id="mFWYxVebDer8n1wnjaA2-53" style="edgeStyle=orthogonalEdgeStyle;rounded=0;orthogonalLoop=1;jettySize=auto;html=1;exitX=0.5;exitY=1;exitDx=0;exitDy=0;entryX=0.5;entryY=0;entryDx=0;entryDy=0;" parent="1" source="mFWYxVebDer8n1wnjaA2-47" target="mFWYxVebDer8n1wnjaA2-48" edge="1">
          <mxGeometry relative="1" as="geometry" />
        </mxCell>
        <mxCell id="mFWYxVebDer8n1wnjaA2-47" value="&lt;span style=&quot;font-size: 14px;&quot;&gt;Вычисление объёма&lt;br&gt;второго пузыря&lt;/span&gt;" style="rounded=0;whiteSpace=wrap;html=1;" parent="1" vertex="1">
          <mxGeometry x="181" y="340" width="240" height="50" as="geometry" />
        </mxCell>
        <mxCell id="mFWYxVebDer8n1wnjaA2-54" style="edgeStyle=orthogonalEdgeStyle;rounded=0;orthogonalLoop=1;jettySize=auto;html=1;exitX=0.5;exitY=1;exitDx=0;exitDy=0;entryX=0.5;entryY=0;entryDx=0;entryDy=0;" parent="1" source="mFWYxVebDer8n1wnjaA2-48" target="mFWYxVebDer8n1wnjaA2-50" edge="1">
          <mxGeometry relative="1" as="geometry" />
        </mxCell>
        <mxCell id="mFWYxVebDer8n1wnjaA2-48" value="&lt;span style=&quot;font-size: 14px;&quot;&gt;Вычисление суммы объёмов&lt;/span&gt;" style="rounded=0;whiteSpace=wrap;html=1;" parent="1" vertex="1">
          <mxGeometry x="181" y="410" width="240" height="50" as="geometry" />
        </mxCell>
        <mxCell id="mFWYxVebDer8n1wnjaA2-56" style="edgeStyle=orthogonalEdgeStyle;rounded=0;orthogonalLoop=1;jettySize=auto;html=1;exitX=0.5;exitY=1;exitDx=0;exitDy=0;entryX=0.5;entryY=0;entryDx=0;entryDy=0;" parent="1" source="mFWYxVebDer8n1wnjaA2-50" target="mFWYxVebDer8n1wnjaA2-55" edge="1">
          <mxGeometry relative="1" as="geometry" />
        </mxCell>
        <mxCell id="mFWYxVebDer8n1wnjaA2-50" value="&lt;span style=&quot;font-size: 14px;&quot;&gt;Вычисление радиуса нового пузыря из суммарного объёма&lt;br&gt;&lt;/span&gt;" style="rounded=0;whiteSpace=wrap;html=1;" parent="1" vertex="1">
          <mxGeometry x="181" y="480" width="240" height="50" as="geometry" />
        </mxCell>
        <mxCell id="UQZYYSS9gI8fSPbV_oEv-2" style="edgeStyle=orthogonalEdgeStyle;rounded=0;orthogonalLoop=1;jettySize=auto;html=1;exitX=0.5;exitY=1;exitDx=0;exitDy=0;entryX=0.5;entryY=0;entryDx=0;entryDy=0;" parent="1" source="mFWYxVebDer8n1wnjaA2-55" target="UQZYYSS9gI8fSPbV_oEv-1" edge="1">
          <mxGeometry relative="1" as="geometry" />
        </mxCell>
        <mxCell id="mFWYxVebDer8n1wnjaA2-55" value="&lt;span style=&quot;font-size: 14px;&quot;&gt;Задание нового центра и радиуса первому пузырю&lt;br&gt;&lt;/span&gt;" style="rounded=0;whiteSpace=wrap;html=1;" parent="1" vertex="1">
          <mxGeometry x="181" y="560" width="240" height="50" as="geometry" />
        </mxCell>
        <mxCell id="UQZYYSS9gI8fSPbV_oEv-1" value="&lt;span style=&quot;font-size: 14px;&quot;&gt;Вернуть первый пузырь в &lt;br&gt;качестве результата&lt;/span&gt;" style="shape=parallelogram;perimeter=parallelogramPerimeter;whiteSpace=wrap;html=1;fixedSize=1;" parent="1" vertex="1">
          <mxGeometry x="182.5" y="650" width="237" height="43" as="geometry" />
        </mxCell>
        <mxCell id="yKVCMIirjcnlccUytCsE-1" value="&lt;font style=&quot;font-size: 14px;&quot;&gt;Конец&lt;/font&gt;" style="strokeWidth=1;html=1;shape=mxgraph.flowchart.terminator;whiteSpace=wrap;" parent="1" vertex="1">
          <mxGeometry x="226" y="720" width="150" height="60" as="geometry" />
        </mxCell>
        <mxCell id="yKVCMIirjcnlccUytCsE-2" style="edgeStyle=orthogonalEdgeStyle;rounded=0;orthogonalLoop=1;jettySize=auto;html=1;exitX=0.5;exitY=1;exitDx=0;exitDy=0;entryX=0.5;entryY=0;entryDx=0;entryDy=0;entryPerimeter=0;" parent="1" source="UQZYYSS9gI8fSPbV_oEv-1" target="yKVCMIirjcnlccUytCsE-1" edge="1">
          <mxGeometry relative="1" as="geometry" />
        </mxCell>
      </root>
    </mxGraphModel>
  </diagram>
  <diagram id="r0A1zAJGHJQ0DPLQ8C4Q" name="Отталкивание пузырьков друг от друга">
    <mxGraphModel dx="1877" dy="1139" grid="0" gridSize="10" guides="1" tooltips="1" connect="1" arrows="1" fold="1" page="1" pageScale="1" pageWidth="827" pageHeight="1169" math="0" shadow="0">
      <root>
        <mxCell id="0" />
        <mxCell id="1" parent="0" />
        <mxCell id="qbXmlnEN06_vvFh0md5--1" style="edgeStyle=orthogonalEdgeStyle;rounded=0;orthogonalLoop=1;jettySize=auto;html=1;fontSize=14;dashed=1;endArrow=none;endFill=0;entryX=1;entryY=0.5;entryDx=0;entryDy=0;entryPerimeter=0;" parent="1" source="qbXmlnEN06_vvFh0md5--2" target="qbXmlnEN06_vvFh0md5--5" edge="1">
          <mxGeometry relative="1" as="geometry">
            <mxPoint x="361" y="80" as="targetPoint" />
            <Array as="points">
              <mxPoint x="376" y="50" />
            </Array>
          </mxGeometry>
        </mxCell>
        <mxCell id="qbXmlnEN06_vvFh0md5--2" value="" style="strokeWidth=1;html=1;shape=mxgraph.flowchart.annotation_2;align=left;labelPosition=right;pointerEvents=1;rounded=0;fontSize=14;strokeColor=default;fillColor=default;" parent="1" vertex="1">
          <mxGeometry x="459" y="10" width="4" height="110" as="geometry" />
        </mxCell>
        <mxCell id="qbXmlnEN06_vvFh0md5--3" value="&lt;font style=&quot;font-size: 14px;&quot;&gt;Алгоритм&lt;/font&gt;&lt;font style=&quot;&quot;&gt;&lt;font style=&quot;font-size: 14px;&quot;&gt; о&lt;span style=&quot;text-align: center; text-wrap: wrap; background-color: initial;&quot;&gt;тталкивания пузырьков&lt;/span&gt;&lt;/font&gt;&lt;/font&gt;&lt;div&gt;&lt;div style=&quot;&quot;&gt;&lt;font style=&quot;font-size: 14px;&quot;&gt;Входные данные: два пузырька&lt;/font&gt;&lt;span style=&quot;background-color: initial;&quot;&gt;,&amp;nbsp;&lt;/span&gt;&lt;/div&gt;&lt;div&gt;флаг об исходном состоянии пузырьков&amp;nbsp;&lt;/div&gt;&lt;div&gt;(истинный - если один из пузырьков&amp;nbsp;&lt;/div&gt;&lt;div&gt;является частью кластера)&amp;nbsp;&lt;/div&gt;&lt;div style=&quot;&quot;&gt;&lt;font style=&quot;&quot;&gt;&lt;font style=&quot;font-size: 14px;&quot;&gt;Выходные данные: один пузырь&lt;br&gt;&lt;/font&gt;&lt;/font&gt;&lt;/div&gt;&lt;/div&gt;" style="text;html=1;align=left;verticalAlign=middle;resizable=0;points=[];autosize=1;fontSize=14;" parent="1" vertex="1">
          <mxGeometry x="463" y="10" width="290" height="110" as="geometry" />
        </mxCell>
        <mxCell id="qbXmlnEN06_vvFh0md5--4" style="edgeStyle=orthogonalEdgeStyle;rounded=0;orthogonalLoop=1;jettySize=auto;html=1;exitX=0.5;exitY=1;exitDx=0;exitDy=0;exitPerimeter=0;entryX=0.5;entryY=0;entryDx=0;entryDy=0;" parent="1" source="dxojFqFOsYdociZGaJDH-1" edge="1">
          <mxGeometry relative="1" as="geometry">
            <mxPoint x="301" y="160" as="targetPoint" />
          </mxGeometry>
        </mxCell>
        <mxCell id="qbXmlnEN06_vvFh0md5--5" value="&lt;span style=&quot;font-size: 14px;&quot;&gt;Начало&lt;/span&gt;" style="strokeWidth=1;html=1;shape=mxgraph.flowchart.terminator;whiteSpace=wrap;" parent="1" vertex="1">
          <mxGeometry x="226" y="20" width="150" height="60" as="geometry" />
        </mxCell>
        <mxCell id="qbXmlnEN06_vvFh0md5--19" value="&lt;font style=&quot;font-size: 14px;&quot;&gt;Конец&lt;/font&gt;" style="strokeWidth=1;html=1;shape=mxgraph.flowchart.terminator;whiteSpace=wrap;" parent="1" vertex="1">
          <mxGeometry x="245" y="1090" width="150" height="60" as="geometry" />
        </mxCell>
        <mxCell id="dxojFqFOsYdociZGaJDH-3" style="edgeStyle=orthogonalEdgeStyle;rounded=0;orthogonalLoop=1;jettySize=auto;html=1;exitX=0.5;exitY=1;exitDx=0;exitDy=0;entryX=0.5;entryY=0;entryDx=0;entryDy=0;" parent="1" source="dxojFqFOsYdociZGaJDH-1" target="dxojFqFOsYdociZGaJDH-2" edge="1">
          <mxGeometry relative="1" as="geometry" />
        </mxCell>
        <mxCell id="ClG9tWZIQOT6FoT2EguY-5" style="edgeStyle=orthogonalEdgeStyle;rounded=0;orthogonalLoop=1;jettySize=auto;html=1;exitX=0.5;exitY=1;exitDx=0;exitDy=0;entryX=0.5;entryY=0;entryDx=0;entryDy=0;" parent="1" source="dxojFqFOsYdociZGaJDH-2" target="ClG9tWZIQOT6FoT2EguY-3" edge="1">
          <mxGeometry relative="1" as="geometry" />
        </mxCell>
        <mxCell id="dxojFqFOsYdociZGaJDH-2" value="&lt;span style=&quot;font-size: 14px;&quot;&gt;Вычисляем расстояние между центрами пузырьком&lt;/span&gt;" style="rounded=0;whiteSpace=wrap;html=1;" parent="1" vertex="1">
          <mxGeometry x="181" y="160" width="240" height="40" as="geometry" />
        </mxCell>
        <mxCell id="dxojFqFOsYdociZGaJDH-8" style="edgeStyle=orthogonalEdgeStyle;rounded=0;orthogonalLoop=1;jettySize=auto;html=1;exitX=0.5;exitY=1;exitDx=0;exitDy=0;entryX=0.5;entryY=0;entryDx=0;entryDy=0;" parent="1" source="dxojFqFOsYdociZGaJDH-5" target="dxojFqFOsYdociZGaJDH-6" edge="1">
          <mxGeometry relative="1" as="geometry" />
        </mxCell>
        <mxCell id="dxojFqFOsYdociZGaJDH-5" value="&lt;span style=&quot;font-size: 14px;&quot;&gt;current_distance = длина&amp;nbsp;&lt;/span&gt;&lt;div&gt;&lt;span style=&quot;font-size: 14px;&quot;&gt;расстояния между центрами пузырьков на данный момент;&lt;/span&gt;&lt;/div&gt;" style="rounded=0;whiteSpace=wrap;html=1;" parent="1" vertex="1">
          <mxGeometry x="181" y="290" width="240" height="60" as="geometry" />
        </mxCell>
        <mxCell id="ClG9tWZIQOT6FoT2EguY-4" style="edgeStyle=orthogonalEdgeStyle;rounded=0;orthogonalLoop=1;jettySize=auto;html=1;exitX=0.5;exitY=1;exitDx=0;exitDy=0;entryX=0.5;entryY=0;entryDx=0;entryDy=0;" parent="1" source="dxojFqFOsYdociZGaJDH-6" target="ClG9tWZIQOT6FoT2EguY-1" edge="1">
          <mxGeometry relative="1" as="geometry" />
        </mxCell>
        <mxCell id="dxojFqFOsYdociZGaJDH-6" value="&lt;span style=&quot;font-size: 14px;&quot;&gt;required_distance = желаемое расстояние, сумма радиусов двух пузырей&lt;/span&gt;" style="rounded=0;whiteSpace=wrap;html=1;" parent="1" vertex="1">
          <mxGeometry x="181" y="370" width="240" height="60" as="geometry" />
        </mxCell>
        <mxCell id="ClG9tWZIQOT6FoT2EguY-9" style="edgeStyle=orthogonalEdgeStyle;rounded=0;orthogonalLoop=1;jettySize=auto;html=1;exitX=0.5;exitY=1;exitDx=0;exitDy=0;entryX=0.5;entryY=0;entryDx=0;entryDy=0;" parent="1" source="ClG9tWZIQOT6FoT2EguY-1" target="ClG9tWZIQOT6FoT2EguY-7" edge="1">
          <mxGeometry relative="1" as="geometry" />
        </mxCell>
        <mxCell id="ClG9tWZIQOT6FoT2EguY-10" value="да" style="edgeLabel;html=1;align=center;verticalAlign=middle;resizable=0;points=[];" parent="ClG9tWZIQOT6FoT2EguY-9" vertex="1" connectable="0">
          <mxGeometry x="-0.4" relative="1" as="geometry">
            <mxPoint x="14" as="offset" />
          </mxGeometry>
        </mxCell>
        <mxCell id="NVX9xZZc2JpZEjq7MA9U-9" style="edgeStyle=orthogonalEdgeStyle;rounded=0;orthogonalLoop=1;jettySize=auto;html=1;exitX=1;exitY=0.5;exitDx=0;exitDy=0;entryX=0.5;entryY=0;entryDx=0;entryDy=0;" edge="1" parent="1" source="ClG9tWZIQOT6FoT2EguY-1" target="NVX9xZZc2JpZEjq7MA9U-8">
          <mxGeometry relative="1" as="geometry">
            <Array as="points">
              <mxPoint x="730" y="490" />
              <mxPoint x="730" y="930" />
              <mxPoint x="660" y="930" />
            </Array>
          </mxGeometry>
        </mxCell>
        <mxCell id="ClG9tWZIQOT6FoT2EguY-1" value="&lt;span style=&quot;font-size: 14px;&quot;&gt;current_distance &amp;lt; required_distance&lt;/span&gt;" style="rhombus;whiteSpace=wrap;html=1;" parent="1" vertex="1">
          <mxGeometry x="186.5" y="460" width="229" height="60" as="geometry" />
        </mxCell>
        <mxCell id="ClG9tWZIQOT6FoT2EguY-6" style="edgeStyle=orthogonalEdgeStyle;rounded=0;orthogonalLoop=1;jettySize=auto;html=1;exitX=0.5;exitY=1;exitDx=0;exitDy=0;entryX=0.5;entryY=0;entryDx=0;entryDy=0;" parent="1" source="ClG9tWZIQOT6FoT2EguY-3" target="dxojFqFOsYdociZGaJDH-5" edge="1">
          <mxGeometry relative="1" as="geometry" />
        </mxCell>
        <mxCell id="ClG9tWZIQOT6FoT2EguY-3" value="&lt;span style=&quot;font-size: 14px;&quot;&gt;direction = векторная разница&amp;nbsp;&lt;/span&gt;&lt;div&gt;&lt;span style=&quot;font-size: 14px;&quot;&gt;между центрами пузырьков&lt;/span&gt;&lt;/div&gt;" style="rounded=0;whiteSpace=wrap;html=1;" parent="1" vertex="1">
          <mxGeometry x="181" y="220" width="240" height="50" as="geometry" />
        </mxCell>
        <mxCell id="ClG9tWZIQOT6FoT2EguY-12" style="edgeStyle=orthogonalEdgeStyle;rounded=0;orthogonalLoop=1;jettySize=auto;html=1;exitX=0.5;exitY=1;exitDx=0;exitDy=0;entryX=0.5;entryY=0;entryDx=0;entryDy=0;" parent="1" source="ClG9tWZIQOT6FoT2EguY-7" target="ClG9tWZIQOT6FoT2EguY-11" edge="1">
          <mxGeometry relative="1" as="geometry" />
        </mxCell>
        <mxCell id="ClG9tWZIQOT6FoT2EguY-7" value="&lt;span style=&quot;font-size: 14px;&quot;&gt;Нормализовать direction&lt;/span&gt;" style="rounded=0;whiteSpace=wrap;html=1;" parent="1" vertex="1">
          <mxGeometry x="181" y="550" width="240" height="30" as="geometry" />
        </mxCell>
        <mxCell id="grLOjfProwR02NGqBzpi-2" style="edgeStyle=orthogonalEdgeStyle;rounded=0;orthogonalLoop=1;jettySize=auto;html=1;exitX=0.5;exitY=1;exitDx=0;exitDy=0;entryX=0.5;entryY=0;entryDx=0;entryDy=0;" parent="1" source="ClG9tWZIQOT6FoT2EguY-11" target="grLOjfProwR02NGqBzpi-1" edge="1">
          <mxGeometry relative="1" as="geometry" />
        </mxCell>
        <mxCell id="ClG9tWZIQOT6FoT2EguY-11" value="&lt;span style=&quot;font-size: 14px;&quot;&gt;Вычислить расстояние на которое&lt;br&gt;надо оттолкнуть&lt;br&gt;push_distance = required_distance - current_distance&lt;/span&gt;" style="rounded=0;whiteSpace=wrap;html=1;" parent="1" vertex="1">
          <mxGeometry x="181" y="600" width="240" height="70" as="geometry" />
        </mxCell>
        <mxCell id="grLOjfProwR02NGqBzpi-5" style="edgeStyle=orthogonalEdgeStyle;rounded=0;orthogonalLoop=1;jettySize=auto;html=1;exitX=0.5;exitY=1;exitDx=0;exitDy=0;entryX=0.5;entryY=0;entryDx=0;entryDy=0;" parent="1" source="grLOjfProwR02NGqBzpi-1" target="grLOjfProwR02NGqBzpi-4" edge="1">
          <mxGeometry relative="1" as="geometry" />
        </mxCell>
        <mxCell id="grLOjfProwR02NGqBzpi-8" value="да" style="edgeLabel;html=1;align=center;verticalAlign=middle;resizable=0;points=[];" parent="grLOjfProwR02NGqBzpi-5" vertex="1" connectable="0">
          <mxGeometry x="-0.1667" y="-1" relative="1" as="geometry">
            <mxPoint x="20" y="1" as="offset" />
          </mxGeometry>
        </mxCell>
        <mxCell id="grLOjfProwR02NGqBzpi-9" style="edgeStyle=orthogonalEdgeStyle;rounded=0;orthogonalLoop=1;jettySize=auto;html=1;exitX=1;exitY=0.5;exitDx=0;exitDy=0;entryX=0.5;entryY=0;entryDx=0;entryDy=0;" parent="1" source="grLOjfProwR02NGqBzpi-1" target="grLOjfProwR02NGqBzpi-7" edge="1">
          <mxGeometry relative="1" as="geometry" />
        </mxCell>
        <mxCell id="grLOjfProwR02NGqBzpi-1" value="&lt;span style=&quot;font-size: 14px; text-align: left; text-wrap: nowrap;&quot;&gt;флаг об&amp;nbsp;&lt;/span&gt;&lt;div&gt;&lt;span style=&quot;font-size: 14px; text-align: left; text-wrap: nowrap;&quot;&gt;исходном состоянии&amp;nbsp;&lt;/span&gt;&lt;/div&gt;&lt;div&gt;&lt;span style=&quot;font-size: 14px; text-align: left; text-wrap: nowrap;&quot;&gt;пузырьков ==&amp;nbsp;&lt;/span&gt;&lt;/div&gt;&lt;div&gt;&lt;span style=&quot;font-size: 14px; text-align: left; text-wrap: nowrap;&quot;&gt;истинна&lt;/span&gt;&lt;/div&gt;" style="rhombus;whiteSpace=wrap;html=1;" parent="1" vertex="1">
          <mxGeometry x="186.5" y="690" width="229" height="80" as="geometry" />
        </mxCell>
        <mxCell id="grLOjfProwR02NGqBzpi-3" value="" style="edgeStyle=orthogonalEdgeStyle;rounded=0;orthogonalLoop=1;jettySize=auto;html=1;exitX=0.5;exitY=1;exitDx=0;exitDy=0;exitPerimeter=0;entryX=0.5;entryY=0;entryDx=0;entryDy=0;" parent="1" source="qbXmlnEN06_vvFh0md5--5" target="dxojFqFOsYdociZGaJDH-1" edge="1">
          <mxGeometry relative="1" as="geometry">
            <mxPoint x="301" y="160" as="targetPoint" />
            <mxPoint x="301" y="110" as="sourcePoint" />
          </mxGeometry>
        </mxCell>
        <mxCell id="dxojFqFOsYdociZGaJDH-1" value="&lt;span style=&quot;font-size: 14px;&quot;&gt;Создание списка результатов&lt;/span&gt;" style="rounded=0;whiteSpace=wrap;html=1;" parent="1" vertex="1">
          <mxGeometry x="181" y="100" width="240" height="35" as="geometry" />
        </mxCell>
        <mxCell id="NVX9xZZc2JpZEjq7MA9U-2" style="edgeStyle=orthogonalEdgeStyle;rounded=0;orthogonalLoop=1;jettySize=auto;html=1;exitX=0.5;exitY=1;exitDx=0;exitDy=0;entryX=0.5;entryY=0;entryDx=0;entryDy=0;" edge="1" parent="1" source="grLOjfProwR02NGqBzpi-4" target="KB8u1OSG-TKRLqQuNx6L-2">
          <mxGeometry relative="1" as="geometry">
            <Array as="points">
              <mxPoint x="301" y="880" />
              <mxPoint x="319" y="880" />
            </Array>
          </mxGeometry>
        </mxCell>
        <mxCell id="grLOjfProwR02NGqBzpi-4" value="&lt;span style=&quot;font-size: 14px;&quot;&gt;К центру второго пузыря прибавить direction * push_distance&lt;/span&gt;" style="rounded=0;whiteSpace=wrap;html=1;" parent="1" vertex="1">
          <mxGeometry x="181" y="800" width="240" height="50" as="geometry" />
        </mxCell>
        <mxCell id="NVX9xZZc2JpZEjq7MA9U-4" style="edgeStyle=orthogonalEdgeStyle;rounded=0;orthogonalLoop=1;jettySize=auto;html=1;exitX=0.5;exitY=1;exitDx=0;exitDy=0;entryX=0.5;entryY=0;entryDx=0;entryDy=0;" edge="1" parent="1" source="grLOjfProwR02NGqBzpi-6" target="KB8u1OSG-TKRLqQuNx6L-2">
          <mxGeometry relative="1" as="geometry">
            <Array as="points">
              <mxPoint x="570" y="880" />
              <mxPoint x="319" y="880" />
            </Array>
          </mxGeometry>
        </mxCell>
        <mxCell id="grLOjfProwR02NGqBzpi-6" value="&lt;span style=&quot;font-size: 14px;&quot;&gt;К центру второго пузыря прибавить (direction * push_distance) / 2&lt;/span&gt;" style="rounded=0;whiteSpace=wrap;html=1;" parent="1" vertex="1">
          <mxGeometry x="450" y="820" width="240" height="50" as="geometry" />
        </mxCell>
        <mxCell id="grLOjfProwR02NGqBzpi-10" style="edgeStyle=orthogonalEdgeStyle;rounded=0;orthogonalLoop=1;jettySize=auto;html=1;exitX=0.5;exitY=1;exitDx=0;exitDy=0;entryX=0.5;entryY=0;entryDx=0;entryDy=0;" parent="1" source="grLOjfProwR02NGqBzpi-7" target="grLOjfProwR02NGqBzpi-6" edge="1">
          <mxGeometry relative="1" as="geometry" />
        </mxCell>
        <mxCell id="grLOjfProwR02NGqBzpi-7" value="&lt;span style=&quot;font-size: 14px;&quot;&gt;К центру первого пузыря прибавить (direction * push_distance) / 2&lt;/span&gt;" style="rounded=0;whiteSpace=wrap;html=1;" parent="1" vertex="1">
          <mxGeometry x="450" y="750" width="240" height="50" as="geometry" />
        </mxCell>
        <mxCell id="NVX9xZZc2JpZEjq7MA9U-6" style="edgeStyle=orthogonalEdgeStyle;rounded=0;orthogonalLoop=1;jettySize=auto;html=1;exitX=0.5;exitY=1;exitDx=0;exitDy=0;entryX=0.5;entryY=0;entryDx=0;entryDy=0;" edge="1" parent="1" source="KB8u1OSG-TKRLqQuNx6L-2" target="NVX9xZZc2JpZEjq7MA9U-5">
          <mxGeometry relative="1" as="geometry" />
        </mxCell>
        <mxCell id="KB8u1OSG-TKRLqQuNx6L-2" value="&lt;span style=&quot;font-size: 14px;&quot;&gt;Записать два изменённых пузыря в список результатов&lt;/span&gt;" style="rounded=0;whiteSpace=wrap;html=1;" parent="1" vertex="1">
          <mxGeometry x="198.5" y="900" width="240" height="40" as="geometry" />
        </mxCell>
        <mxCell id="l2Olnq0rVNAstlaEKfJq-1" value="&lt;span style=&quot;font-size: 14px;&quot;&gt;Вернуть список результатов&lt;/span&gt;" style="shape=parallelogram;perimeter=parallelogramPerimeter;whiteSpace=wrap;html=1;fixedSize=1;" parent="1" vertex="1">
          <mxGeometry x="201.5" y="1040" width="237" height="30" as="geometry" />
        </mxCell>
        <mxCell id="l2Olnq0rVNAstlaEKfJq-6" style="edgeStyle=orthogonalEdgeStyle;rounded=0;orthogonalLoop=1;jettySize=auto;html=1;exitX=0.5;exitY=1;exitDx=0;exitDy=0;entryX=0.5;entryY=0;entryDx=0;entryDy=0;entryPerimeter=0;" parent="1" source="l2Olnq0rVNAstlaEKfJq-1" target="qbXmlnEN06_vvFh0md5--19" edge="1">
          <mxGeometry relative="1" as="geometry" />
        </mxCell>
        <mxCell id="NVX9xZZc2JpZEjq7MA9U-7" style="edgeStyle=orthogonalEdgeStyle;rounded=0;orthogonalLoop=1;jettySize=auto;html=1;exitX=0.5;exitY=1;exitDx=0;exitDy=0;entryX=0.5;entryY=0;entryDx=0;entryDy=0;" edge="1" parent="1" source="NVX9xZZc2JpZEjq7MA9U-5" target="l2Olnq0rVNAstlaEKfJq-1">
          <mxGeometry relative="1" as="geometry" />
        </mxCell>
        <mxCell id="NVX9xZZc2JpZEjq7MA9U-5" value="&lt;span style=&quot;font-size: 14px;&quot;&gt;Перезаписать радиусы пузырей, чтобы высоты сегментов были равны радиусам&lt;/span&gt;" style="rounded=0;whiteSpace=wrap;html=1;" vertex="1" parent="1">
          <mxGeometry x="198.5" y="960" width="240" height="50" as="geometry" />
        </mxCell>
        <mxCell id="NVX9xZZc2JpZEjq7MA9U-10" style="edgeStyle=orthogonalEdgeStyle;rounded=0;orthogonalLoop=1;jettySize=auto;html=1;exitX=0.5;exitY=1;exitDx=0;exitDy=0;entryX=0.5;entryY=0;entryDx=0;entryDy=0;" edge="1" parent="1" source="NVX9xZZc2JpZEjq7MA9U-8" target="l2Olnq0rVNAstlaEKfJq-1">
          <mxGeometry relative="1" as="geometry" />
        </mxCell>
        <mxCell id="NVX9xZZc2JpZEjq7MA9U-8" value="&lt;span style=&quot;font-size: 14px;&quot;&gt;Записать два исходных пузыря в список результатов&lt;/span&gt;" style="rounded=0;whiteSpace=wrap;html=1;" vertex="1" parent="1">
          <mxGeometry x="540" y="960" width="240" height="40" as="geometry" />
        </mxCell>
      </root>
    </mxGraphModel>
  </diagram>
  <diagram id="pZEdNLd87ebXaS6ja4-c" name="Создание пузырькового кластера">
    <mxGraphModel dx="1460" dy="886" grid="0" gridSize="10" guides="1" tooltips="1" connect="1" arrows="1" fold="1" page="1" pageScale="1" pageWidth="827" pageHeight="1169" math="0" shadow="0">
      <root>
        <mxCell id="0" />
        <mxCell id="1" parent="0" />
        <mxCell id="r-QkLueH8UoJvllQUTI7-1" style="edgeStyle=orthogonalEdgeStyle;rounded=0;orthogonalLoop=1;jettySize=auto;html=1;fontSize=14;dashed=1;endArrow=none;endFill=0;entryX=1;entryY=0.5;entryDx=0;entryDy=0;entryPerimeter=0;" edge="1" parent="1" source="r-QkLueH8UoJvllQUTI7-2" target="r-QkLueH8UoJvllQUTI7-5">
          <mxGeometry relative="1" as="geometry">
            <mxPoint x="361" y="80" as="targetPoint" />
            <Array as="points">
              <mxPoint x="436" y="80" />
              <mxPoint x="436" y="80" />
            </Array>
          </mxGeometry>
        </mxCell>
        <mxCell id="r-QkLueH8UoJvllQUTI7-2" value="" style="strokeWidth=1;html=1;shape=mxgraph.flowchart.annotation_2;align=left;labelPosition=right;pointerEvents=1;rounded=0;fontSize=14;strokeColor=default;fillColor=default;" vertex="1" parent="1">
          <mxGeometry x="459" y="40" width="4" height="80" as="geometry" />
        </mxCell>
        <mxCell id="r-QkLueH8UoJvllQUTI7-3" value="&lt;font style=&quot;font-size: 14px;&quot;&gt;Алгоритм&lt;/font&gt;&lt;font style=&quot;&quot;&gt;&lt;font style=&quot;font-size: 14px;&quot;&gt;&amp;nbsp;создания пузырькового кластера&lt;/font&gt;&lt;/font&gt;&lt;div&gt;&lt;div style=&quot;&quot;&gt;&lt;font style=&quot;font-size: 14px;&quot;&gt;Входные данные: объект пузырьковый кластер&lt;/font&gt;&lt;/div&gt;&lt;div style=&quot;&quot;&gt;&lt;font style=&quot;&quot;&gt;&lt;font style=&quot;font-size: 14px;&quot;&gt;Выходные данные: изменённый объект &lt;br&gt;пузырьковый кластер&lt;br&gt;&lt;/font&gt;&lt;/font&gt;&lt;/div&gt;&lt;/div&gt;" style="text;html=1;align=left;verticalAlign=middle;resizable=0;points=[];autosize=1;fontSize=14;" vertex="1" parent="1">
          <mxGeometry x="463" y="40" width="330" height="80" as="geometry" />
        </mxCell>
        <mxCell id="MWzglXWCZDDikyVfWeOm-2" style="edgeStyle=orthogonalEdgeStyle;rounded=0;orthogonalLoop=1;jettySize=auto;html=1;exitX=0.5;exitY=1;exitDx=0;exitDy=0;exitPerimeter=0;entryX=0.5;entryY=0;entryDx=0;entryDy=0;" edge="1" parent="1" source="r-QkLueH8UoJvllQUTI7-5" target="MWzglXWCZDDikyVfWeOm-1">
          <mxGeometry relative="1" as="geometry" />
        </mxCell>
        <mxCell id="r-QkLueH8UoJvllQUTI7-5" value="&lt;span style=&quot;font-size: 14px;&quot;&gt;Начало&lt;/span&gt;" style="strokeWidth=1;html=1;shape=mxgraph.flowchart.terminator;whiteSpace=wrap;" vertex="1" parent="1">
          <mxGeometry x="226" y="50" width="150" height="60" as="geometry" />
        </mxCell>
        <mxCell id="r-QkLueH8UoJvllQUTI7-6" value="&lt;font style=&quot;font-size: 14px;&quot;&gt;Конец&lt;/font&gt;" style="strokeWidth=1;html=1;shape=mxgraph.flowchart.terminator;whiteSpace=wrap;" vertex="1" parent="1">
          <mxGeometry x="226.5" y="810" width="150" height="60" as="geometry" />
        </mxCell>
        <mxCell id="r-QkLueH8UoJvllQUTI7-10" style="edgeStyle=orthogonalEdgeStyle;rounded=0;orthogonalLoop=1;jettySize=auto;html=1;exitX=0.5;exitY=1;exitDx=0;exitDy=0;entryX=0.5;entryY=0;entryDx=0;entryDy=0;" edge="1" parent="1" source="r-QkLueH8UoJvllQUTI7-11" target="r-QkLueH8UoJvllQUTI7-13">
          <mxGeometry relative="1" as="geometry" />
        </mxCell>
        <mxCell id="r-QkLueH8UoJvllQUTI7-11" value="&lt;span style=&quot;font-size: 14px;&quot;&gt;Создаём 4 новых сегмента, по два для каждого пузырька кластера, изначатьно полного размера&amp;nbsp;&lt;/span&gt;" style="rounded=0;whiteSpace=wrap;html=1;" vertex="1" parent="1">
          <mxGeometry x="181" y="320" width="240" height="60" as="geometry" />
        </mxCell>
        <mxCell id="MWzglXWCZDDikyVfWeOm-5" style="edgeStyle=orthogonalEdgeStyle;rounded=0;orthogonalLoop=1;jettySize=auto;html=1;exitX=0.5;exitY=1;exitDx=0;exitDy=0;entryX=0.5;entryY=0;entryDx=0;entryDy=0;" edge="1" parent="1" source="r-QkLueH8UoJvllQUTI7-13" target="MWzglXWCZDDikyVfWeOm-4">
          <mxGeometry relative="1" as="geometry" />
        </mxCell>
        <mxCell id="r-QkLueH8UoJvllQUTI7-13" value="&lt;font style=&quot;font-size: 14px;&quot;&gt;направление первого сегмента&amp;nbsp; пузырька №1 = membrane_normal&amp;nbsp;&lt;/font&gt;&lt;div&gt;&lt;font style=&quot;font-size: 14px;&quot;&gt;направление&amp;nbsp;второго сегмента пузырька&amp;nbsp;&lt;/font&gt;&lt;span style=&quot;font-size: 14px; background-color: initial;&quot;&gt;№1&lt;/span&gt;&lt;font style=&quot;background-color: initial; font-size: 14px;&quot;&gt;&amp;nbsp;&lt;/font&gt;&lt;span style=&quot;background-color: initial; font-size: 14px;&quot;&gt;= - membrane_normal&lt;/span&gt;&lt;/div&gt;" style="rounded=0;whiteSpace=wrap;html=1;" vertex="1" parent="1">
          <mxGeometry x="181" y="400" width="240" height="70" as="geometry" />
        </mxCell>
        <mxCell id="r-QkLueH8UoJvllQUTI7-17" style="edgeStyle=orthogonalEdgeStyle;rounded=0;orthogonalLoop=1;jettySize=auto;html=1;exitX=0.5;exitY=1;exitDx=0;exitDy=0;entryX=0.5;entryY=0;entryDx=0;entryDy=0;" edge="1" parent="1" source="r-QkLueH8UoJvllQUTI7-18" target="r-QkLueH8UoJvllQUTI7-11">
          <mxGeometry relative="1" as="geometry" />
        </mxCell>
        <mxCell id="r-QkLueH8UoJvllQUTI7-18" value="&lt;span style=&quot;font-size: 14px;&quot;&gt;Вычисляем membrane_normal&amp;nbsp;&lt;/span&gt;&lt;div&gt;&lt;span style=&quot;font-size: 14px;&quot;&gt;как вектор от&amp;nbsp; центра второго пузырька до центра первого&lt;/span&gt;&lt;/div&gt;" style="rounded=0;whiteSpace=wrap;html=1;" vertex="1" parent="1">
          <mxGeometry x="181" y="250" width="240" height="50" as="geometry" />
        </mxCell>
        <mxCell id="MWzglXWCZDDikyVfWeOm-3" style="edgeStyle=orthogonalEdgeStyle;rounded=0;orthogonalLoop=1;jettySize=auto;html=1;exitX=0.5;exitY=1;exitDx=0;exitDy=0;entryX=0.5;entryY=0;entryDx=0;entryDy=0;" edge="1" parent="1" source="MWzglXWCZDDikyVfWeOm-1" target="r-QkLueH8UoJvllQUTI7-18">
          <mxGeometry relative="1" as="geometry" />
        </mxCell>
        <mxCell id="MWzglXWCZDDikyVfWeOm-1" value="&lt;font style=&quot;font-size: 14px;&quot;&gt;Находим центр окружности пересечения и записываем результат в переменную&lt;br&gt;center_of_intersection&lt;/font&gt;" style="shape=process;whiteSpace=wrap;html=1;backgroundOutline=1;align=center;" vertex="1" parent="1">
          <mxGeometry x="180.5" y="140" width="241" height="84" as="geometry" />
        </mxCell>
        <mxCell id="MWzglXWCZDDikyVfWeOm-7" style="edgeStyle=orthogonalEdgeStyle;rounded=0;orthogonalLoop=1;jettySize=auto;html=1;exitX=0.5;exitY=1;exitDx=0;exitDy=0;entryX=0.5;entryY=0;entryDx=0;entryDy=0;" edge="1" parent="1" source="MWzglXWCZDDikyVfWeOm-4" target="MWzglXWCZDDikyVfWeOm-6">
          <mxGeometry relative="1" as="geometry" />
        </mxCell>
        <mxCell id="MWzglXWCZDDikyVfWeOm-4" value="&lt;font style=&quot;font-size: 14px;&quot;&gt;направление первого сегмента пузырька №2&amp;nbsp;=&amp;nbsp; - membrane_normal&amp;nbsp;&lt;/font&gt;&lt;div&gt;&lt;font style=&quot;font-size: 14px;&quot;&gt;направление&amp;nbsp;второго сегмента пузырька №2&amp;nbsp;&lt;/font&gt;&lt;span style=&quot;font-size: 14px; background-color: initial;&quot;&gt;=&amp;nbsp; membrane_normal&lt;/span&gt;&lt;/div&gt;" style="rounded=0;whiteSpace=wrap;html=1;" vertex="1" parent="1">
          <mxGeometry x="180.5" y="490" width="240" height="70" as="geometry" />
        </mxCell>
        <mxCell id="MWzglXWCZDDikyVfWeOm-10" style="edgeStyle=orthogonalEdgeStyle;rounded=0;orthogonalLoop=1;jettySize=auto;html=1;exitX=0.5;exitY=1;exitDx=0;exitDy=0;entryX=0.5;entryY=0;entryDx=0;entryDy=0;" edge="1" parent="1" source="MWzglXWCZDDikyVfWeOm-6" target="MWzglXWCZDDikyVfWeOm-9">
          <mxGeometry relative="1" as="geometry" />
        </mxCell>
        <mxCell id="MWzglXWCZDDikyVfWeOm-6" value="&lt;font style=&quot;font-size: 14px;&quot;&gt;Вычисление правильной высоты для каждого сегмента&lt;/font&gt;" style="shape=process;whiteSpace=wrap;html=1;backgroundOutline=1;" vertex="1" parent="1">
          <mxGeometry x="180.5" y="585" width="239.5" height="60" as="geometry" />
        </mxCell>
        <mxCell id="MWzglXWCZDDikyVfWeOm-12" style="edgeStyle=orthogonalEdgeStyle;rounded=0;orthogonalLoop=1;jettySize=auto;html=1;exitX=0.5;exitY=1;exitDx=0;exitDy=0;entryX=0.5;entryY=0;entryDx=0;entryDy=0;" edge="1" parent="1" source="MWzglXWCZDDikyVfWeOm-9" target="MWzglXWCZDDikyVfWeOm-11">
          <mxGeometry relative="1" as="geometry" />
        </mxCell>
        <mxCell id="MWzglXWCZDDikyVfWeOm-9" value="&lt;span style=&quot;font-size: 14px;&quot;&gt;Обновляем сегменты для обоих пузырьков исходного кластера&lt;/span&gt;" style="rounded=0;whiteSpace=wrap;html=1;" vertex="1" parent="1">
          <mxGeometry x="181" y="670" width="240" height="40" as="geometry" />
        </mxCell>
        <mxCell id="MWzglXWCZDDikyVfWeOm-11" value="&lt;span style=&quot;font-size: 14px;&quot;&gt;Обновляем мембраны для обоих пузырьков исходного кластера&lt;/span&gt;" style="rounded=0;whiteSpace=wrap;html=1;" vertex="1" parent="1">
          <mxGeometry x="181.5" y="740" width="240" height="40" as="geometry" />
        </mxCell>
        <mxCell id="MWzglXWCZDDikyVfWeOm-13" style="edgeStyle=orthogonalEdgeStyle;rounded=0;orthogonalLoop=1;jettySize=auto;html=1;exitX=0.5;exitY=1;exitDx=0;exitDy=0;entryX=0.5;entryY=0;entryDx=0;entryDy=0;entryPerimeter=0;" edge="1" parent="1" source="MWzglXWCZDDikyVfWeOm-11" target="r-QkLueH8UoJvllQUTI7-6">
          <mxGeometry relative="1" as="geometry" />
        </mxCell>
      </root>
    </mxGraphModel>
  </diagram>
  <diagram id="G3XnNeySl0wBEpis-g3N" name="Рендеринг">
    <mxGraphModel dx="1314" dy="797" grid="0" gridSize="10" guides="1" tooltips="1" connect="1" arrows="1" fold="1" page="1" pageScale="1" pageWidth="827" pageHeight="1169" math="0" shadow="0">
      <root>
        <mxCell id="0" />
        <mxCell id="1" parent="0" />
        <mxCell id="w-b6YrgKuv74nDy44HwZ-1" style="edgeStyle=orthogonalEdgeStyle;rounded=0;orthogonalLoop=1;jettySize=auto;html=1;fontSize=14;dashed=1;endArrow=none;endFill=0;entryX=1;entryY=0.5;entryDx=0;entryDy=0;entryPerimeter=0;" edge="1" parent="1" source="w-b6YrgKuv74nDy44HwZ-2" target="w-b6YrgKuv74nDy44HwZ-5">
          <mxGeometry relative="1" as="geometry">
            <mxPoint x="361" y="92" as="targetPoint" />
            <Array as="points">
              <mxPoint x="436" y="92" />
              <mxPoint x="436" y="92" />
            </Array>
          </mxGeometry>
        </mxCell>
        <mxCell id="w-b6YrgKuv74nDy44HwZ-2" value="" style="strokeWidth=1;html=1;shape=mxgraph.flowchart.annotation_2;align=left;labelPosition=right;pointerEvents=1;rounded=0;fontSize=14;strokeColor=default;fillColor=default;" vertex="1" parent="1">
          <mxGeometry x="457" y="23" width="4" height="136" as="geometry" />
        </mxCell>
        <mxCell id="w-b6YrgKuv74nDy44HwZ-3" value="&lt;font style=&quot;font-size: 14px;&quot;&gt;Алгоритм обратной трассировки лучей&lt;br&gt;&lt;/font&gt;&lt;div&gt;&lt;div style=&quot;&quot;&gt;&lt;font style=&quot;font-size: 14px;&quot;&gt;Входные данные: &lt;br&gt;размеры экрана&amp;nbsp; - (W, H),&amp;nbsp;&lt;/font&gt;&lt;/div&gt;&lt;div style=&quot;&quot;&gt;&lt;font style=&quot;font-size: 14px;&quot;&gt;цвет фона - background_color,&amp;nbsp;&lt;/font&gt;&lt;/div&gt;&lt;div style=&quot;&quot;&gt;&lt;font style=&quot;font-size: 14px;&quot;&gt;координаты камеры - camera_position,&lt;/font&gt;&lt;/div&gt;&lt;div style=&quot;&quot;&gt;глубина рекурсии -&amp;nbsp;recursive_depth.&lt;/div&gt;&lt;div style=&quot;&quot;&gt;&lt;font style=&quot;&quot;&gt;&lt;font style=&quot;font-size: 14px;&quot;&gt;Выходные данные: изображение сцены&amp;nbsp;&lt;/font&gt;&lt;/font&gt;&lt;/div&gt;&lt;div style=&quot;&quot;&gt;&lt;font style=&quot;&quot;&gt;&lt;font style=&quot;font-size: 14px;&quot;&gt;на экране&lt;/font&gt;&lt;/font&gt;&lt;/div&gt;&lt;/div&gt;" style="text;html=1;align=left;verticalAlign=middle;resizable=0;points=[];autosize=1;fontSize=14;" vertex="1" parent="1">
          <mxGeometry x="463" y="20" width="281" height="146" as="geometry" />
        </mxCell>
        <mxCell id="w-b6YrgKuv74nDy44HwZ-4" style="edgeStyle=orthogonalEdgeStyle;rounded=0;orthogonalLoop=1;jettySize=auto;html=1;exitX=0.5;exitY=1;exitDx=0;exitDy=0;exitPerimeter=0;entryX=0.5;entryY=0;entryDx=0;entryDy=0;" edge="1" parent="1" source="w-b6YrgKuv74nDy44HwZ-5" target="w-b6YrgKuv74nDy44HwZ-7">
          <mxGeometry relative="1" as="geometry" />
        </mxCell>
        <mxCell id="w-b6YrgKuv74nDy44HwZ-5" value="&lt;span style=&quot;font-size: 14px;&quot;&gt;Начало&lt;/span&gt;" style="strokeWidth=1;html=1;shape=mxgraph.flowchart.terminator;whiteSpace=wrap;" vertex="1" parent="1">
          <mxGeometry x="226" y="62" width="150" height="60" as="geometry" />
        </mxCell>
        <mxCell id="w-b6YrgKuv74nDy44HwZ-47" style="edgeStyle=orthogonalEdgeStyle;rounded=0;orthogonalLoop=1;jettySize=auto;html=1;exitX=0.5;exitY=1;exitDx=0;exitDy=0;entryX=0.5;entryY=0;entryDx=0;entryDy=0;" edge="1" parent="1" source="w-b6YrgKuv74nDy44HwZ-7" target="w-b6YrgKuv74nDy44HwZ-46">
          <mxGeometry relative="1" as="geometry" />
        </mxCell>
        <mxCell id="w-b6YrgKuv74nDy44HwZ-7" value="&lt;span style=&quot;font-size: 14px;&quot;&gt;Заполнение всего экрана цветом фона&lt;/span&gt;" style="rounded=0;whiteSpace=wrap;html=1;" vertex="1" parent="1">
          <mxGeometry x="181" y="157" width="240" height="50" as="geometry" />
        </mxCell>
        <mxCell id="w-b6YrgKuv74nDy44HwZ-61" style="edgeStyle=orthogonalEdgeStyle;rounded=0;orthogonalLoop=1;jettySize=auto;html=1;exitX=0.5;exitY=1;exitDx=0;exitDy=0;entryX=0.5;entryY=0;entryDx=0;entryDy=0;" edge="1" parent="1" source="w-b6YrgKuv74nDy44HwZ-46" target="w-b6YrgKuv74nDy44HwZ-51">
          <mxGeometry relative="1" as="geometry" />
        </mxCell>
        <mxCell id="w-b6YrgKuv74nDy44HwZ-46" value="&lt;span style=&quot;font-size: 14px;&quot;&gt;w = W / 2&lt;/span&gt;&lt;div&gt;&lt;span style=&quot;font-size: 14px;&quot;&gt;&amp;nbsp;h = H / 2&lt;/span&gt;&lt;/div&gt;" style="rounded=0;whiteSpace=wrap;html=1;" vertex="1" parent="1">
          <mxGeometry x="181" y="231" width="240" height="44" as="geometry" />
        </mxCell>
        <mxCell id="CDNGOpao9y2-yt6TSte6-2" style="edgeStyle=orthogonalEdgeStyle;rounded=0;orthogonalLoop=1;jettySize=auto;html=1;exitX=0.5;exitY=1;exitDx=0;exitDy=0;entryX=0.5;entryY=0;entryDx=0;entryDy=0;" edge="1" parent="1" source="w-b6YrgKuv74nDy44HwZ-49" target="CDNGOpao9y2-yt6TSte6-1">
          <mxGeometry relative="1" as="geometry" />
        </mxCell>
        <mxCell id="w-b6YrgKuv74nDy44HwZ-49" value="&lt;font style=&quot;font-size: 14px;&quot;&gt;Цикл y от -h до h&lt;/font&gt;&lt;div&gt;&lt;font style=&quot;font-size: 14px;&quot;&gt;с шагом 1&lt;br&gt;&lt;/font&gt;&lt;/div&gt;" style="shape=loopLimit;whiteSpace=wrap;html=1;" vertex="1" parent="1">
          <mxGeometry x="181" y="357" width="240" height="34" as="geometry" />
        </mxCell>
        <mxCell id="w-b6YrgKuv74nDy44HwZ-50" value="" style="edgeStyle=orthogonalEdgeStyle;rounded=0;orthogonalLoop=1;jettySize=auto;html=1;" edge="1" parent="1" source="w-b6YrgKuv74nDy44HwZ-51" target="w-b6YrgKuv74nDy44HwZ-49">
          <mxGeometry relative="1" as="geometry" />
        </mxCell>
        <mxCell id="w-b6YrgKuv74nDy44HwZ-51" value="&lt;font style=&quot;font-size: 14px;&quot;&gt;Цикл x от -w до w&lt;/font&gt;&lt;div&gt;&lt;font style=&quot;font-size: 14px;&quot;&gt;с шагом 1&lt;br&gt;&lt;/font&gt;&lt;/div&gt;" style="shape=loopLimit;whiteSpace=wrap;html=1;" vertex="1" parent="1">
          <mxGeometry x="181" y="296" width="240" height="40" as="geometry" />
        </mxCell>
        <mxCell id="w-b6YrgKuv74nDy44HwZ-54" value="&lt;font style=&quot;font-size: 14px;&quot;&gt;Конец цикла по i&lt;/font&gt;" style="shape=loopLimit;whiteSpace=wrap;html=1;flipV=1;" vertex="1" parent="1">
          <mxGeometry x="181.5" y="745" width="240" height="30" as="geometry" />
        </mxCell>
        <mxCell id="LlnOLj5_Fjczyk2E0fmk-5" style="edgeStyle=orthogonalEdgeStyle;rounded=0;orthogonalLoop=1;jettySize=auto;html=1;exitX=0.5;exitY=1;exitDx=0;exitDy=0;entryX=0.5;entryY=0;entryDx=0;entryDy=0;" edge="1" parent="1" source="w-b6YrgKuv74nDy44HwZ-56" target="w-b6YrgKuv74nDy44HwZ-54">
          <mxGeometry relative="1" as="geometry" />
        </mxCell>
        <mxCell id="w-b6YrgKuv74nDy44HwZ-56" value="&lt;font style=&quot;font-size: 14px;&quot;&gt;Конец цикла по j&lt;/font&gt;" style="shape=loopLimit;whiteSpace=wrap;html=1;flipV=1;" vertex="1" parent="1">
          <mxGeometry x="180.5" y="692" width="240" height="30" as="geometry" />
        </mxCell>
        <mxCell id="LlnOLj5_Fjczyk2E0fmk-3" style="edgeStyle=orthogonalEdgeStyle;rounded=0;orthogonalLoop=1;jettySize=auto;html=1;exitX=0.5;exitY=1;exitDx=0;exitDy=0;entryX=0.5;entryY=0;entryDx=0;entryDy=0;" edge="1" parent="1" source="CDNGOpao9y2-yt6TSte6-1" target="LlnOLj5_Fjczyk2E0fmk-2">
          <mxGeometry relative="1" as="geometry" />
        </mxCell>
        <mxCell id="CDNGOpao9y2-yt6TSte6-1" value="&lt;span style=&quot;font-size: 14px;&quot;&gt;Вычисление direction направления луча из конкретного пикселя в пространство&lt;/span&gt;" style="shape=process;whiteSpace=wrap;html=1;backgroundOutline=1;" vertex="1" parent="1">
          <mxGeometry x="181" y="418" width="239.5" height="70" as="geometry" />
        </mxCell>
        <mxCell id="LlnOLj5_Fjczyk2E0fmk-7" style="edgeStyle=orthogonalEdgeStyle;rounded=0;orthogonalLoop=1;jettySize=auto;html=1;exitX=0.5;exitY=1;exitDx=0;exitDy=0;entryX=0.5;entryY=0;entryDx=0;entryDy=0;" edge="1" parent="1" source="LlnOLj5_Fjczyk2E0fmk-2" target="LlnOLj5_Fjczyk2E0fmk-6">
          <mxGeometry relative="1" as="geometry" />
        </mxCell>
        <mxCell id="LlnOLj5_Fjczyk2E0fmk-2" value="&lt;span style=&quot;font-size: 14px;&quot;&gt;Трассировка конкретного луча от x, y, direction, camera_position, recursive_depth, результат работы color - цвет этого пикселя&lt;/span&gt;" style="shape=process;whiteSpace=wrap;html=1;backgroundOutline=1;" vertex="1" parent="1">
          <mxGeometry x="181" y="511" width="239.5" height="97" as="geometry" />
        </mxCell>
        <mxCell id="LlnOLj5_Fjczyk2E0fmk-8" style="edgeStyle=orthogonalEdgeStyle;rounded=0;orthogonalLoop=1;jettySize=auto;html=1;exitX=0.5;exitY=1;exitDx=0;exitDy=0;entryX=0.5;entryY=0;entryDx=0;entryDy=0;" edge="1" parent="1" source="LlnOLj5_Fjczyk2E0fmk-6" target="w-b6YrgKuv74nDy44HwZ-56">
          <mxGeometry relative="1" as="geometry" />
        </mxCell>
        <mxCell id="LlnOLj5_Fjczyk2E0fmk-6" value="&lt;span style=&quot;font-size: 14px;&quot;&gt;Закрашивание данного пикселя цветом color&lt;/span&gt;" style="shape=process;whiteSpace=wrap;html=1;backgroundOutline=1;" vertex="1" parent="1">
          <mxGeometry x="182" y="625" width="239.5" height="44" as="geometry" />
        </mxCell>
        <mxCell id="LlnOLj5_Fjczyk2E0fmk-9" value="&lt;font style=&quot;font-size: 14px;&quot;&gt;Конец&lt;/font&gt;" style="strokeWidth=1;html=1;shape=mxgraph.flowchart.terminator;whiteSpace=wrap;" vertex="1" parent="1">
          <mxGeometry x="226.5" y="800" width="150" height="60" as="geometry" />
        </mxCell>
        <mxCell id="LlnOLj5_Fjczyk2E0fmk-10" style="edgeStyle=orthogonalEdgeStyle;rounded=0;orthogonalLoop=1;jettySize=auto;html=1;exitX=0.5;exitY=1;exitDx=0;exitDy=0;entryX=0.5;entryY=0;entryDx=0;entryDy=0;entryPerimeter=0;" edge="1" parent="1" source="w-b6YrgKuv74nDy44HwZ-54" target="LlnOLj5_Fjczyk2E0fmk-9">
          <mxGeometry relative="1" as="geometry" />
        </mxCell>
      </root>
    </mxGraphModel>
  </diagram>
  <diagram id="bMdLm2YloJTKNPSM_CiP" name="Трассировка одного луча">
    <mxGraphModel dx="1314" dy="797" grid="0" gridSize="10" guides="1" tooltips="1" connect="1" arrows="1" fold="1" page="1" pageScale="1" pageWidth="827" pageHeight="1169" math="0" shadow="0">
      <root>
        <mxCell id="0" />
        <mxCell id="1" parent="0" />
        <mxCell id="f945vclyy-PU7Ua-4cbD-1" style="edgeStyle=orthogonalEdgeStyle;rounded=0;orthogonalLoop=1;jettySize=auto;html=1;fontSize=14;dashed=1;endArrow=none;endFill=0;entryX=1;entryY=0.5;entryDx=0;entryDy=0;entryPerimeter=0;" edge="1" parent="1" source="f945vclyy-PU7Ua-4cbD-2" target="f945vclyy-PU7Ua-4cbD-5">
          <mxGeometry relative="1" as="geometry">
            <mxPoint x="225" y="90" as="targetPoint" />
            <Array as="points">
              <mxPoint x="278" y="69" />
              <mxPoint x="278" y="69" />
            </Array>
          </mxGeometry>
        </mxCell>
        <mxCell id="f945vclyy-PU7Ua-4cbD-2" value="" style="strokeWidth=1;html=1;shape=mxgraph.flowchart.annotation_2;align=left;labelPosition=right;pointerEvents=1;rounded=0;fontSize=14;strokeColor=default;fillColor=default;" vertex="1" parent="1">
          <mxGeometry x="328" y="6" width="4" height="129" as="geometry" />
        </mxCell>
        <mxCell id="f945vclyy-PU7Ua-4cbD-3" value="&lt;font style=&quot;font-size: 14px;&quot;&gt;Алгоритм обратной трассировки одного луча&lt;br&gt;&lt;/font&gt;&lt;div&gt;&lt;div style=&quot;&quot;&gt;&lt;font style=&quot;font-size: 14px;&quot;&gt;Входные данные: координаты пикселя - (x, y),&lt;/font&gt;&lt;/div&gt;&lt;div style=&quot;&quot;&gt;&lt;font style=&quot;font-size: 14px;&quot;&gt;нулевая точка луча - origin,&amp;nbsp;&lt;/font&gt;&lt;span style=&quot;background-color: initial;&quot;&gt;направление луча - direction,&lt;/span&gt;&lt;/div&gt;&lt;div style=&quot;&quot;&gt;минимальное расстояние от нулевой точки - min_t,&lt;/div&gt;&lt;div style=&quot;&quot;&gt;максимальное расстояние от нулевой точки - max_t,&lt;/div&gt;&lt;div style=&quot;&quot;&gt;глубина рекурсии - depth.&lt;/div&gt;&lt;div style=&quot;&quot;&gt;&lt;font style=&quot;&quot;&gt;&lt;font style=&quot;font-size: 14px;&quot;&gt;Выходные данные: цвет.&lt;br&gt;&lt;/font&gt;&lt;/font&gt;&lt;/div&gt;&lt;/div&gt;" style="text;html=1;align=left;verticalAlign=middle;resizable=1;points=[];autosize=1;fontSize=14;" vertex="1" parent="1">
          <mxGeometry x="334" y="6" width="387" height="130" as="geometry" />
        </mxCell>
        <mxCell id="osQcy_hgjPScUfVv4ruN-2" style="edgeStyle=orthogonalEdgeStyle;rounded=0;orthogonalLoop=1;jettySize=auto;html=1;exitX=0.5;exitY=1;exitDx=0;exitDy=0;exitPerimeter=0;entryX=0.5;entryY=0;entryDx=0;entryDy=0;" edge="1" parent="1" source="f945vclyy-PU7Ua-4cbD-5" target="osQcy_hgjPScUfVv4ruN-1">
          <mxGeometry relative="1" as="geometry" />
        </mxCell>
        <mxCell id="f945vclyy-PU7Ua-4cbD-5" value="&lt;span style=&quot;font-size: 14px;&quot;&gt;Начало&lt;/span&gt;" style="strokeWidth=1;html=1;shape=mxgraph.flowchart.terminator;whiteSpace=wrap;" vertex="1" parent="1">
          <mxGeometry x="91" y="39" width="150" height="60" as="geometry" />
        </mxCell>
        <mxCell id="-6CEymwHAe5We5sgS0rc-2" style="edgeStyle=orthogonalEdgeStyle;rounded=0;orthogonalLoop=1;jettySize=auto;html=1;exitX=0.5;exitY=1;exitDx=0;exitDy=0;entryX=0.5;entryY=0;entryDx=0;entryDy=0;" edge="1" parent="1" source="osQcy_hgjPScUfVv4ruN-1" target="-6CEymwHAe5We5sgS0rc-1">
          <mxGeometry relative="1" as="geometry" />
        </mxCell>
        <mxCell id="osQcy_hgjPScUfVv4ruN-1" value="&lt;span style=&quot;font-size: 14px;&quot;&gt;Находим ближайшую сферу closest, поверхность которой пересекает луч, и расстояния closest_t от нулевой точки луча до поверхности ближайшей сферы в направлении direction по лучу&lt;/span&gt;" style="shape=process;whiteSpace=wrap;html=1;backgroundOutline=1;" vertex="1" parent="1">
          <mxGeometry x="45" y="114" width="239.5" height="146" as="geometry" />
        </mxCell>
        <mxCell id="IzfSJ6N0zzY2MfMx1rYz-2" style="edgeStyle=orthogonalEdgeStyle;rounded=0;orthogonalLoop=1;jettySize=auto;html=1;exitX=0.5;exitY=1;exitDx=0;exitDy=0;entryX=0.5;entryY=0;entryDx=0;entryDy=0;" edge="1" parent="1" source="-6CEymwHAe5We5sgS0rc-1" target="IzfSJ6N0zzY2MfMx1rYz-1">
          <mxGeometry relative="1" as="geometry" />
        </mxCell>
        <mxCell id="IzfSJ6N0zzY2MfMx1rYz-8" value="да" style="edgeLabel;html=1;align=center;verticalAlign=middle;resizable=0;points=[];" vertex="1" connectable="0" parent="IzfSJ6N0zzY2MfMx1rYz-2">
          <mxGeometry x="-0.4" y="2" relative="1" as="geometry">
            <mxPoint x="16" y="2" as="offset" />
          </mxGeometry>
        </mxCell>
        <mxCell id="HC3CvYPdUMylRqgJVo9D-2" style="edgeStyle=orthogonalEdgeStyle;rounded=0;orthogonalLoop=1;jettySize=auto;html=1;exitX=1;exitY=0.5;exitDx=0;exitDy=0;entryX=0.5;entryY=0;entryDx=0;entryDy=0;" edge="1" parent="1" source="-6CEymwHAe5We5sgS0rc-1" target="HC3CvYPdUMylRqgJVo9D-1">
          <mxGeometry relative="1" as="geometry" />
        </mxCell>
        <mxCell id="-6CEymwHAe5We5sgS0rc-1" value="&lt;span style=&quot;font-size: 14px;&quot;&gt;было найдено пересечение&lt;/span&gt;" style="rhombus;whiteSpace=wrap;html=1;" vertex="1" parent="1">
          <mxGeometry x="47.5" y="275" width="229" height="49" as="geometry" />
        </mxCell>
        <mxCell id="IzfSJ6N0zzY2MfMx1rYz-7" style="edgeStyle=orthogonalEdgeStyle;rounded=0;orthogonalLoop=1;jettySize=auto;html=1;exitX=0.5;exitY=1;exitDx=0;exitDy=0;entryX=0.5;entryY=0;entryDx=0;entryDy=0;" edge="1" parent="1" source="IzfSJ6N0zzY2MfMx1rYz-1" target="IzfSJ6N0zzY2MfMx1rYz-6">
          <mxGeometry relative="1" as="geometry" />
        </mxCell>
        <mxCell id="IzfSJ6N0zzY2MfMx1rYz-1" value="&lt;span style=&quot;font-size: 14px;&quot;&gt;point = origin + direction * closest_t&lt;/span&gt;" style="rounded=0;whiteSpace=wrap;html=1;" vertex="1" parent="1">
          <mxGeometry x="42.5" y="341" width="240" height="25" as="geometry" />
        </mxCell>
        <mxCell id="IzfSJ6N0zzY2MfMx1rYz-10" style="edgeStyle=orthogonalEdgeStyle;rounded=0;orthogonalLoop=1;jettySize=auto;html=1;exitX=0.5;exitY=1;exitDx=0;exitDy=0;entryX=0.5;entryY=0;entryDx=0;entryDy=0;" edge="1" parent="1" source="IzfSJ6N0zzY2MfMx1rYz-6" target="IzfSJ6N0zzY2MfMx1rYz-9">
          <mxGeometry relative="1" as="geometry" />
        </mxCell>
        <mxCell id="IzfSJ6N0zzY2MfMx1rYz-6" value="&lt;span style=&quot;font-size: 14px;&quot;&gt;normal = point - closest.Center&lt;/span&gt;" style="rounded=0;whiteSpace=wrap;html=1;" vertex="1" parent="1">
          <mxGeometry x="41.5" y="381" width="240" height="24" as="geometry" />
        </mxCell>
        <mxCell id="IzfSJ6N0zzY2MfMx1rYz-13" style="edgeStyle=orthogonalEdgeStyle;rounded=0;orthogonalLoop=1;jettySize=auto;html=1;exitX=0.5;exitY=1;exitDx=0;exitDy=0;entryX=0.5;entryY=0;entryDx=0;entryDy=0;" edge="1" parent="1" source="IzfSJ6N0zzY2MfMx1rYz-9" target="IzfSJ6N0zzY2MfMx1rYz-11">
          <mxGeometry relative="1" as="geometry" />
        </mxCell>
        <mxCell id="IzfSJ6N0zzY2MfMx1rYz-9" value="&lt;span style=&quot;font-size: 14px;&quot;&gt;Нормализовать вектор normal&lt;/span&gt;" style="rounded=0;whiteSpace=wrap;html=1;" vertex="1" parent="1">
          <mxGeometry x="42.5" y="418" width="240" height="23" as="geometry" />
        </mxCell>
        <mxCell id="IzfSJ6N0zzY2MfMx1rYz-14" style="edgeStyle=orthogonalEdgeStyle;rounded=0;orthogonalLoop=1;jettySize=auto;html=1;exitX=0.5;exitY=1;exitDx=0;exitDy=0;entryX=0.5;entryY=0;entryDx=0;entryDy=0;" edge="1" parent="1" source="IzfSJ6N0zzY2MfMx1rYz-11" target="IzfSJ6N0zzY2MfMx1rYz-12">
          <mxGeometry relative="1" as="geometry" />
        </mxCell>
        <mxCell id="IzfSJ6N0zzY2MfMx1rYz-11" value="&lt;font style=&quot;font-size: 14px;&quot;&gt;view = direction * (-1);&lt;/font&gt;" style="rounded=0;whiteSpace=wrap;html=1;" vertex="1" parent="1">
          <mxGeometry x="42" y="455" width="240" height="26" as="geometry" />
        </mxCell>
        <mxCell id="IzfSJ6N0zzY2MfMx1rYz-17" style="edgeStyle=orthogonalEdgeStyle;rounded=0;orthogonalLoop=1;jettySize=auto;html=1;exitX=0.5;exitY=1;exitDx=0;exitDy=0;entryX=0.5;entryY=0;entryDx=0;entryDy=0;" edge="1" parent="1" source="IzfSJ6N0zzY2MfMx1rYz-12" target="IzfSJ6N0zzY2MfMx1rYz-15">
          <mxGeometry relative="1" as="geometry" />
        </mxCell>
        <mxCell id="IzfSJ6N0zzY2MfMx1rYz-12" value="&lt;span style=&quot;font-size: 14px;&quot;&gt;Находим коэффициент освещения lighting относительно point, normal, view, отражательный коэф. ближайшей сферы&lt;/span&gt;" style="shape=process;whiteSpace=wrap;html=1;backgroundOutline=1;" vertex="1" parent="1">
          <mxGeometry x="42.25" y="496" width="239.5" height="87" as="geometry" />
        </mxCell>
        <mxCell id="IzfSJ6N0zzY2MfMx1rYz-18" style="edgeStyle=orthogonalEdgeStyle;rounded=0;orthogonalLoop=1;jettySize=auto;html=1;exitX=0.5;exitY=1;exitDx=0;exitDy=0;entryX=0.5;entryY=0;entryDx=0;entryDy=0;" edge="1" parent="1" source="IzfSJ6N0zzY2MfMx1rYz-15" target="IzfSJ6N0zzY2MfMx1rYz-16">
          <mxGeometry relative="1" as="geometry" />
        </mxCell>
        <mxCell id="IzfSJ6N0zzY2MfMx1rYz-15" value="&lt;font style=&quot;font-size: 14px;&quot;&gt;local_color = closest.Color * lighting&lt;/font&gt;" style="rounded=0;whiteSpace=wrap;html=1;" vertex="1" parent="1">
          <mxGeometry x="41.5" y="597" width="240" height="34" as="geometry" />
        </mxCell>
        <mxCell id="HC3CvYPdUMylRqgJVo9D-4" style="edgeStyle=orthogonalEdgeStyle;rounded=0;orthogonalLoop=1;jettySize=auto;html=1;exitX=0.5;exitY=1;exitDx=0;exitDy=0;entryX=0.5;entryY=0;entryDx=0;entryDy=0;" edge="1" parent="1" source="IzfSJ6N0zzY2MfMx1rYz-16" target="HC3CvYPdUMylRqgJVo9D-3">
          <mxGeometry relative="1" as="geometry" />
        </mxCell>
        <mxCell id="HC3CvYPdUMylRqgJVo9D-5" value="да" style="edgeLabel;html=1;align=center;verticalAlign=middle;resizable=0;points=[];" vertex="1" connectable="0" parent="HC3CvYPdUMylRqgJVo9D-4">
          <mxGeometry x="-0.1445" y="-1" relative="1" as="geometry">
            <mxPoint x="14" y="-2" as="offset" />
          </mxGeometry>
        </mxCell>
        <mxCell id="HC3CvYPdUMylRqgJVo9D-7" style="edgeStyle=orthogonalEdgeStyle;rounded=0;orthogonalLoop=1;jettySize=auto;html=1;exitX=1;exitY=0.5;exitDx=0;exitDy=0;entryX=0.5;entryY=0;entryDx=0;entryDy=0;" edge="1" parent="1" source="IzfSJ6N0zzY2MfMx1rYz-16" target="HC3CvYPdUMylRqgJVo9D-6">
          <mxGeometry relative="1" as="geometry" />
        </mxCell>
        <mxCell id="IzfSJ6N0zzY2MfMx1rYz-16" value="&lt;span style=&quot;font-size: 14px;&quot;&gt;closest.Reflective &amp;lt;= 0 &lt;br&gt;или depth &amp;lt;= 0&lt;/span&gt;" style="rhombus;whiteSpace=wrap;html=1;" vertex="1" parent="1">
          <mxGeometry x="47" y="647" width="229" height="57" as="geometry" />
        </mxCell>
        <mxCell id="HC3CvYPdUMylRqgJVo9D-1" value="&lt;span style=&quot;font-size: 14px;&quot;&gt;Вернуть background_color&lt;/span&gt;" style="shape=parallelogram;perimeter=parallelogramPerimeter;whiteSpace=wrap;html=1;fixedSize=1;" vertex="1" parent="1">
          <mxGeometry x="480" y="388" width="237" height="30" as="geometry" />
        </mxCell>
        <mxCell id="HC3CvYPdUMylRqgJVo9D-3" value="&lt;span style=&quot;font-size: 14px;&quot;&gt;Вернуть local_color&lt;/span&gt;" style="shape=parallelogram;perimeter=parallelogramPerimeter;whiteSpace=wrap;html=1;fixedSize=1;" vertex="1" parent="1">
          <mxGeometry x="43.5" y="728" width="237" height="20" as="geometry" />
        </mxCell>
        <mxCell id="HC3CvYPdUMylRqgJVo9D-9" style="edgeStyle=orthogonalEdgeStyle;rounded=0;orthogonalLoop=1;jettySize=auto;html=1;exitX=0.5;exitY=1;exitDx=0;exitDy=0;entryX=0.5;entryY=0;entryDx=0;entryDy=0;" edge="1" parent="1" source="HC3CvYPdUMylRqgJVo9D-6" target="HC3CvYPdUMylRqgJVo9D-8">
          <mxGeometry relative="1" as="geometry" />
        </mxCell>
        <mxCell id="HC3CvYPdUMylRqgJVo9D-6" value="&lt;font style=&quot;font-size: 14px;&quot;&gt;koef = 1 - closest.Reflective&lt;/font&gt;" style="rounded=0;whiteSpace=wrap;html=1;" vertex="1" parent="1">
          <mxGeometry x="306.25" y="697" width="240" height="26" as="geometry" />
        </mxCell>
        <mxCell id="HC3CvYPdUMylRqgJVo9D-11" style="edgeStyle=orthogonalEdgeStyle;rounded=0;orthogonalLoop=1;jettySize=auto;html=1;exitX=0.5;exitY=1;exitDx=0;exitDy=0;entryX=0.5;entryY=0;entryDx=0;entryDy=0;" edge="1" parent="1" source="HC3CvYPdUMylRqgJVo9D-8" target="HC3CvYPdUMylRqgJVo9D-10">
          <mxGeometry relative="1" as="geometry" />
        </mxCell>
        <mxCell id="HC3CvYPdUMylRqgJVo9D-8" value="&lt;font style=&quot;font-size: 14px;&quot;&gt;local_contribution = local_color * koef&lt;/font&gt;" style="rounded=0;whiteSpace=wrap;html=1;" vertex="1" parent="1">
          <mxGeometry x="306.25" y="738" width="240" height="29" as="geometry" />
        </mxCell>
        <mxCell id="HC3CvYPdUMylRqgJVo9D-13" style="edgeStyle=orthogonalEdgeStyle;rounded=0;orthogonalLoop=1;jettySize=auto;html=1;exitX=0.5;exitY=1;exitDx=0;exitDy=0;entryX=0.5;entryY=0;entryDx=0;entryDy=0;" edge="1" parent="1" source="HC3CvYPdUMylRqgJVo9D-10" target="HC3CvYPdUMylRqgJVo9D-12">
          <mxGeometry relative="1" as="geometry" />
        </mxCell>
        <mxCell id="HC3CvYPdUMylRqgJVo9D-10" value="&lt;span style=&quot;font-size: 14px;&quot;&gt;Находим направление отражённого луча&amp;nbsp;&lt;/span&gt;&lt;span style=&quot;font-size: 14px; background-color: initial;&quot;&gt;reflected_ray&lt;/span&gt;" style="shape=process;whiteSpace=wrap;html=1;backgroundOutline=1;" vertex="1" parent="1">
          <mxGeometry x="304" y="785" width="244.5" height="53" as="geometry" />
        </mxCell>
        <mxCell id="HC3CvYPdUMylRqgJVo9D-16" style="edgeStyle=orthogonalEdgeStyle;rounded=0;orthogonalLoop=1;jettySize=auto;html=1;exitX=0.5;exitY=1;exitDx=0;exitDy=0;entryX=0.5;entryY=0;entryDx=0;entryDy=0;" edge="1" parent="1" source="HC3CvYPdUMylRqgJVo9D-12" target="HC3CvYPdUMylRqgJVo9D-15">
          <mxGeometry relative="1" as="geometry" />
        </mxCell>
        <mxCell id="HC3CvYPdUMylRqgJVo9D-12" value="&lt;span style=&quot;font-size: 14px;&quot;&gt;reflected_color = результат выполнение алгоритма обратной трассироки луча для x, y, point, reflected_ray, min_t, max_t, depth -1.&lt;/span&gt;" style="shape=process;whiteSpace=wrap;html=1;backgroundOutline=1;" vertex="1" parent="1">
          <mxGeometry x="306.5" y="854" width="239.5" height="89" as="geometry" />
        </mxCell>
        <mxCell id="HC3CvYPdUMylRqgJVo9D-20" style="edgeStyle=orthogonalEdgeStyle;rounded=0;orthogonalLoop=1;jettySize=auto;html=1;exitX=0.5;exitY=1;exitDx=0;exitDy=0;entryX=0.5;entryY=0;entryDx=0;entryDy=0;" edge="1" parent="1" source="HC3CvYPdUMylRqgJVo9D-14" target="HC3CvYPdUMylRqgJVo9D-19">
          <mxGeometry relative="1" as="geometry" />
        </mxCell>
        <mxCell id="HC3CvYPdUMylRqgJVo9D-14" value="&lt;span style=&quot;font-size: 14px;&quot;&gt;result_color = local_contribution +&amp;nbsp;&lt;/span&gt;&lt;span style=&quot;font-size: 14px;&quot;&gt;reflected_contribution&lt;/span&gt;&lt;span style=&quot;font-size: 14px;&quot;&gt;&amp;nbsp;&lt;/span&gt;" style="rounded=0;whiteSpace=wrap;html=1;" vertex="1" parent="1">
          <mxGeometry x="307" y="1006" width="240" height="34" as="geometry" />
        </mxCell>
        <mxCell id="HC3CvYPdUMylRqgJVo9D-17" style="edgeStyle=orthogonalEdgeStyle;rounded=0;orthogonalLoop=1;jettySize=auto;html=1;exitX=0.5;exitY=1;exitDx=0;exitDy=0;entryX=0.5;entryY=0;entryDx=0;entryDy=0;" edge="1" parent="1" source="HC3CvYPdUMylRqgJVo9D-15" target="HC3CvYPdUMylRqgJVo9D-14">
          <mxGeometry relative="1" as="geometry" />
        </mxCell>
        <mxCell id="HC3CvYPdUMylRqgJVo9D-15" value="&lt;span style=&quot;font-size: 14px;&quot;&gt;reflected_contribution = reflected_color *&amp;nbsp;closest.Reflective&lt;/span&gt;" style="rounded=0;whiteSpace=wrap;html=1;" vertex="1" parent="1">
          <mxGeometry x="306.5" y="959" width="240" height="31" as="geometry" />
        </mxCell>
        <mxCell id="HC3CvYPdUMylRqgJVo9D-19" value="&lt;span style=&quot;font-size: 14px;&quot;&gt;Вернуть result_color&lt;/span&gt;" style="shape=parallelogram;perimeter=parallelogramPerimeter;whiteSpace=wrap;html=1;fixedSize=1;" vertex="1" parent="1">
          <mxGeometry x="308" y="1059" width="237" height="22" as="geometry" />
        </mxCell>
        <mxCell id="nJocblJlo2xtkDoeW44Q-1" value="&lt;font style=&quot;font-size: 14px;&quot;&gt;Конец&lt;/font&gt;" style="strokeWidth=1;html=1;shape=mxgraph.flowchart.terminator;whiteSpace=wrap;" vertex="1" parent="1">
          <mxGeometry x="132.5" y="1109" width="150" height="60" as="geometry" />
        </mxCell>
        <mxCell id="nJocblJlo2xtkDoeW44Q-2" style="edgeStyle=orthogonalEdgeStyle;rounded=0;orthogonalLoop=1;jettySize=auto;html=1;exitX=0.5;exitY=1;exitDx=0;exitDy=0;entryX=0.5;entryY=0;entryDx=0;entryDy=0;entryPerimeter=0;" edge="1" parent="1" source="HC3CvYPdUMylRqgJVo9D-19" target="nJocblJlo2xtkDoeW44Q-1">
          <mxGeometry relative="1" as="geometry">
            <Array as="points">
              <mxPoint x="430" y="1081" />
              <mxPoint x="430" y="1093" />
              <mxPoint x="208" y="1093" />
            </Array>
          </mxGeometry>
        </mxCell>
        <mxCell id="nJocblJlo2xtkDoeW44Q-3" style="edgeStyle=orthogonalEdgeStyle;rounded=0;orthogonalLoop=1;jettySize=auto;html=1;exitX=0.5;exitY=1;exitDx=0;exitDy=0;entryX=0.5;entryY=0;entryDx=0;entryDy=0;entryPerimeter=0;" edge="1" parent="1" source="HC3CvYPdUMylRqgJVo9D-1" target="nJocblJlo2xtkDoeW44Q-1">
          <mxGeometry relative="1" as="geometry">
            <Array as="points">
              <mxPoint x="599" y="1093" />
              <mxPoint x="208" y="1093" />
            </Array>
          </mxGeometry>
        </mxCell>
        <mxCell id="nJocblJlo2xtkDoeW44Q-4" style="edgeStyle=orthogonalEdgeStyle;rounded=0;orthogonalLoop=1;jettySize=auto;html=1;exitX=0.5;exitY=1;exitDx=0;exitDy=0;entryX=0.5;entryY=0;entryDx=0;entryDy=0;entryPerimeter=0;" edge="1" parent="1" source="HC3CvYPdUMylRqgJVo9D-3" target="nJocblJlo2xtkDoeW44Q-1">
          <mxGeometry relative="1" as="geometry">
            <Array as="points">
              <mxPoint x="163" y="748" />
              <mxPoint x="163" y="1093" />
              <mxPoint x="208" y="1093" />
            </Array>
          </mxGeometry>
        </mxCell>
      </root>
    </mxGraphModel>
  </diagram>
</mxfile>
